<svg width="33" height="32" viewBox="0 0 33 32" fill="none" xmlns="http://www.w3.org/2000/svg">
<g clip-path="url(#clip0_17501_133)">
<path d="M16.0658 0C7.19302 0 0 7.12816 0 15.9212C0 24.7143 7.19302 31.8424 16.0658 31.8424C24.9386 31.8424 32.1316 24.7143 32.1316 15.9212C32.1316 7.12816 24.9386 0 16.0658 0ZM21.6185 16.7652L13.5856 21.7405C13.4231 21.8411 13.2383 21.8917 13.0535 21.8917C12.886 21.8917 12.7183 21.8504 12.5666 21.7668C12.2474 21.5914 12.0493 21.2586 12.0493 20.8966V10.9458C12.0493 10.5839 12.2474 10.251 12.5666 10.0756C12.8858 9.89926 13.2761 9.90996 13.5856 10.1019L21.6185 15.0773C21.912 15.2595 22.0905 15.5782 22.0905 15.9212C22.0905 16.2642 21.912 16.583 21.6185 16.7652Z" fill="#FDFF00"/>
</g>
<defs>
<clipPath id="clip0_17501_133">
<rect width="32.1316" height="31.8424" rx="8" fill="white"/>
</clipPath>
</defs>
</svg>
