<svg width="97" height="53" viewBox="0 0 97 53" fill="none" xmlns="http://www.w3.org/2000/svg">
<g clip-path="url(#clip0_19001_594)">
<path d="M50.6131 35.8345C50.4153 35.8345 50.2712 35.7933 50.1806 35.7109C50.0982 35.6203 50.057 35.4844 50.057 35.3032V27.9756C50.057 27.7944 50.0982 27.6585 50.1806 27.5679C50.2712 27.4772 50.4153 27.4319 50.6131 27.4319H53.7393C55.8317 27.4319 56.8779 28.3463 56.8779 30.1751C56.8779 30.76 56.7543 31.2584 56.5072 31.6703C56.2601 32.0739 55.8935 32.3828 55.4075 32.597L56.7049 35.4391C56.7296 35.4967 56.742 35.5544 56.742 35.6121C56.742 35.7604 56.6555 35.8345 56.4825 35.8345H55.1109C54.9956 35.8345 54.9091 35.8221 54.8514 35.7974C54.7938 35.7645 54.7443 35.6986 54.7031 35.5997L53.5663 32.8812H52.0959V35.3032C52.0959 35.4844 52.0547 35.6203 51.9723 35.7109C51.8899 35.7933 51.7458 35.8345 51.5398 35.8345H50.6131ZM53.4427 31.4108C53.9123 31.4108 54.2624 31.3119 54.4931 31.1142C54.732 30.9165 54.8514 30.6035 54.8514 30.1751C54.8514 29.7468 54.7443 29.4337 54.5301 29.236C54.316 29.0383 53.9947 28.9395 53.5663 28.9395H52.0959V31.4108H53.4427Z" fill="white"/>
<path d="M58.8771 35.8345C58.6794 35.8345 58.5353 35.7933 58.4446 35.7109C58.3623 35.6203 58.321 35.4844 58.321 35.3032V27.9756C58.321 27.7944 58.3623 27.6585 58.4446 27.5679C58.5353 27.4772 58.6794 27.4319 58.8771 27.4319H59.8038C60.0098 27.4319 60.154 27.4772 60.2363 27.5679C60.3187 27.6502 60.3599 27.7862 60.3599 27.9756V35.3032C60.3599 35.4844 60.3187 35.6203 60.2363 35.7109C60.154 35.7933 60.0098 35.8345 59.8038 35.8345H58.8771Z" fill="white"/>
<path d="M62.6039 35.8345C62.4062 35.8345 62.2622 35.7933 62.1714 35.7109C62.0892 35.6203 62.0479 35.4844 62.0479 35.3032V27.9756C62.0479 27.7944 62.0892 27.6585 62.1714 27.5679C62.2622 27.4772 62.4062 27.4319 62.6039 27.4319H65.6931C67.8104 27.4319 68.8687 28.3793 68.8687 30.274C68.8687 32.1604 67.8104 33.1037 65.6931 33.1037H64.0867V35.3032C64.0867 35.4844 64.0453 35.6203 63.9631 35.7109C63.881 35.7933 63.7364 35.8345 63.5307 35.8345H62.6039ZM65.5572 31.6085C66.4141 31.6085 66.8422 31.1637 66.8422 30.274C66.8422 29.3843 66.4141 28.9395 65.5572 28.9395H64.0991V31.6085H65.5572Z" fill="white"/>
<path d="M70.4455 35.8345C70.2477 35.8345 70.1038 35.7933 70.013 35.7109C69.9308 35.6203 69.8894 35.4844 69.8894 35.3032V27.9756C69.8894 27.7944 69.9308 27.6585 70.013 27.5679C70.1038 27.4772 70.2477 27.4319 70.4455 27.4319H73.5346C75.6519 27.4319 76.7103 28.3793 76.7103 30.274C76.7103 32.1604 75.6519 33.1037 73.5346 33.1037H71.9283V35.3032C71.9283 35.4844 71.8869 35.6203 71.8047 35.7109C71.7225 35.7933 71.5779 35.8345 71.3722 35.8345H70.4455ZM73.3987 31.6085C74.2556 31.6085 74.6838 31.1637 74.6838 30.274C74.6838 29.3843 74.2556 28.9395 73.3987 28.9395H71.9406V31.6085H73.3987Z" fill="white"/>
<path d="M78.468 35.8345C78.2703 35.8345 78.1264 35.7933 78.0356 35.7109C77.9534 35.6203 77.912 35.4844 77.912 35.3032V27.9756C77.912 27.7944 77.9534 27.6585 78.0356 27.5679C78.1264 27.4772 78.2703 27.4319 78.468 27.4319H83.5961C83.7938 27.4319 83.9297 27.4732 84.0038 27.5555C84.078 27.6297 84.115 27.7614 84.115 27.9509V28.4081C84.115 28.5976 84.078 28.7335 84.0038 28.8159C83.9297 28.8983 83.7938 28.9395 83.5961 28.9395H79.9508V30.8918H82.4963C82.694 30.8918 82.8299 30.933 82.9041 31.0154C82.9782 31.0895 83.0153 31.2213 83.0153 31.4108V31.8433C83.0153 32.0328 82.9782 32.1687 82.9041 32.2511C82.8299 32.3334 82.694 32.3746 82.4963 32.3746H79.9508V34.3393H83.5837C83.7814 34.3393 83.9173 34.3805 83.9915 34.4629C84.0656 34.5453 84.1027 34.6812 84.1027 34.8707V35.3155C84.1027 35.505 84.0656 35.6409 83.9915 35.7233C83.9173 35.7974 83.7814 35.8345 83.5837 35.8345H78.468Z" fill="white"/>
<path d="M85.9964 35.8345C85.7987 35.8345 85.6541 35.7933 85.5639 35.7109C85.4811 35.6203 85.4403 35.4844 85.4403 35.3032V27.9756C85.4403 27.7944 85.4811 27.6585 85.5639 27.5679C85.6541 27.4772 85.7987 27.4319 85.9964 27.4319H89.1226C91.2146 27.4319 92.2612 28.3463 92.2612 30.1751C92.2612 30.76 92.1376 31.2584 91.8905 31.6703C91.6434 32.0739 91.2764 32.3828 90.7908 32.597L92.0882 35.4391C92.1129 35.4967 92.1253 35.5544 92.1253 35.6121C92.1253 35.7604 92.0388 35.8345 91.8658 35.8345H90.4942C90.3787 35.8345 90.2922 35.8221 90.2347 35.7974C90.1766 35.7645 90.1272 35.6986 90.0864 35.5997L88.9496 32.8812H87.4792V35.3032C87.4792 35.4844 87.4378 35.6203 87.3556 35.7109C87.2728 35.7933 87.1289 35.8345 86.9231 35.8345H85.9964ZM88.826 31.4108C89.2956 31.4108 89.6453 31.3119 89.8764 31.1142C90.1148 30.9165 90.2347 30.6035 90.2347 30.1751C90.2347 29.7468 90.1272 29.4337 89.9134 29.236C89.699 29.0383 89.3778 28.9395 88.9496 28.9395H87.4792V31.4108H88.826Z" fill="white"/>
<path d="M54.3201 48.3765C52.8867 48.3765 51.7746 48.0017 50.9838 47.2521C50.2012 46.4942 49.8099 45.4068 49.8099 43.9899C49.8099 42.5647 50.1929 41.4773 50.959 40.7277C51.7334 39.9781 52.8373 39.6033 54.2706 39.6033C54.872 39.6033 55.4157 39.6651 55.9017 39.7886C56.396 39.904 56.812 40.0728 57.1497 40.2952C57.2322 40.3529 57.2733 40.4188 57.2733 40.4929C57.2733 40.5589 57.2486 40.6289 57.1992 40.703L56.7667 41.4568C56.709 41.5474 56.6514 41.5927 56.5937 41.5927C56.5443 41.5927 56.4743 41.568 56.3836 41.5186C55.8564 41.222 55.2345 41.0737 54.5178 41.0737C53.6693 41.0737 53.0103 41.3208 52.5407 41.8151C52.0711 42.3012 51.8364 43.0261 51.8364 43.9899C51.8364 44.9619 52.0794 45.691 52.5654 46.177C53.0597 46.6631 53.7311 46.9061 54.5796 46.9061C55.354 46.9061 56.0047 46.7578 56.5319 46.4612C56.6225 46.4118 56.6926 46.3871 56.742 46.3871C56.7997 46.3871 56.8573 46.4324 56.915 46.523L57.3969 47.3509C57.4299 47.4086 57.4463 47.458 57.4463 47.4992C57.4463 47.5486 57.3969 47.6104 57.298 47.6845C56.6555 48.1459 55.6629 48.3765 54.3201 48.3765Z" fill="white"/>
<path d="M58.538 48.1912C58.3897 48.1912 58.3156 48.1212 58.3156 47.9811C58.3156 47.9235 58.3279 47.8576 58.3526 47.7834L61.553 40.1593C61.6106 40.0193 61.6724 39.9246 61.7384 39.8751C61.8125 39.8175 61.9157 39.7886 62.0473 39.7886H62.9493C63.0809 39.7886 63.1798 39.8175 63.2459 39.8751C63.312 39.9246 63.3738 40.0193 63.4312 40.1593L66.6316 47.7834C66.6563 47.8576 66.6687 47.9235 66.6687 47.9811C66.6687 48.1212 66.5945 48.1912 66.4462 48.1912H64.9511C64.8356 48.1912 64.7491 48.1747 64.6916 48.1418C64.6422 48.1005 64.5971 48.0305 64.5557 47.9317L63.9873 46.4736H60.9846L60.4285 47.9317C60.3873 48.0305 60.3379 48.1005 60.2803 48.1418C60.2308 48.1747 60.1485 48.1912 60.0331 48.1912H58.538ZM63.5177 45.0526L62.4921 42.3835L61.4542 45.0526H63.5177Z" fill="white"/>
<path d="M70.7995 48.3765C70.1569 48.3765 69.5391 48.3106 68.946 48.1788C68.3615 48.0387 67.8876 47.8452 67.525 47.598C67.4014 47.5074 67.3396 47.4251 67.3396 47.3509C67.3396 47.3015 67.3606 47.2438 67.4014 47.1779L67.908 46.3747C67.9574 46.2924 68.0112 46.2512 68.0686 46.2512C68.1181 46.2512 68.1799 46.2759 68.254 46.3253C68.5592 46.4983 68.9089 46.6384 69.3043 46.7454C69.6997 46.8525 70.0995 46.9061 70.5029 46.9061C70.9811 46.9061 71.3351 46.8319 71.5656 46.6837C71.7967 46.5272 71.9116 46.2841 71.9116 45.9546C71.9116 45.7322 71.8541 45.551 71.7386 45.4109C71.6317 45.2708 71.4667 45.1473 71.2443 45.0402C71.0305 44.9331 70.6969 44.7931 70.2434 44.6201C69.7164 44.4224 69.2672 44.2205 68.8965 44.0146C68.5345 43.8087 68.2336 43.5451 67.9945 43.2238C67.7641 42.8943 67.6485 42.4947 67.6485 42.0252C67.6485 41.2426 67.9327 40.6454 68.5011 40.2335C69.0695 39.8133 69.8196 39.6033 70.75 39.6033C71.9777 39.6033 72.9168 39.8339 73.5674 40.2952C73.6909 40.3941 73.7527 40.4765 73.7527 40.5424C73.7527 40.5918 73.7323 40.6494 73.6909 40.7154L73.1843 41.5186C73.1349 41.6009 73.0818 41.6421 73.0237 41.6421C72.9743 41.6421 72.9125 41.6174 72.8383 41.568C72.336 41.2385 71.7262 41.0737 71.0095 41.0737C70.1199 41.0737 69.675 41.395 69.675 42.0375C69.675 42.2517 69.7244 42.4288 69.8233 42.5689C69.9308 42.7007 70.0748 42.816 70.2558 42.9149C70.4374 43.0055 70.7216 43.1249 71.1084 43.2732L71.4544 43.4091C72.0561 43.648 72.5294 43.8745 72.8754 44.0887C73.2214 44.2947 73.4852 44.5501 73.6662 44.8549C73.8559 45.1596 73.9504 45.551 73.9504 46.0287C73.9504 46.7454 73.6786 47.318 73.1349 47.7463C72.5998 48.1665 71.8214 48.3765 70.7995 48.3765Z" fill="white"/>
<path d="M75.9479 48.1912C75.7502 48.1912 75.6062 48.15 75.5154 48.0676C75.4332 47.977 75.3918 47.8411 75.3918 47.6598V40.3323C75.3918 40.1511 75.4332 40.0152 75.5154 39.9246C75.6062 39.8339 75.7502 39.7886 75.9479 39.7886H76.8746C77.081 39.7886 77.225 39.8339 77.3071 39.9246C77.3899 40.0069 77.4307 40.1428 77.4307 40.3323V47.6598C77.4307 47.8411 77.3899 47.977 77.3071 48.0676C77.225 48.15 77.081 48.1912 76.8746 48.1912H75.9479Z" fill="white"/>
<path d="M79.6747 48.1912C79.477 48.1912 79.333 48.15 79.2422 48.0676C79.16 47.977 79.1187 47.8411 79.1187 47.6598V40.32C79.1187 40.1388 79.16 40.0069 79.2422 39.9246C79.333 39.8339 79.4813 39.7886 79.6871 39.7886H80.4532C80.5934 39.7886 80.6966 39.8092 80.7621 39.8504C80.8362 39.8833 80.9147 39.9534 80.9969 40.0605L84.4567 44.9414V40.3323C84.4567 40.1511 84.4981 40.0152 84.5803 39.9246C84.6711 39.8339 84.8151 39.7886 85.0128 39.7886H85.9395C86.1459 39.7886 86.2899 39.8339 86.372 39.9246C86.4548 40.0069 86.4956 40.1428 86.4956 40.3323V47.6598C86.4956 47.8411 86.4548 47.977 86.372 48.0676C86.2899 48.15 86.1459 48.1912 85.9395 48.1912H85.1611C85.0295 48.1912 84.9263 48.1747 84.8522 48.1418C84.7867 48.1005 84.7125 48.0264 84.6297 47.9193L81.1575 43.0508V47.6598C81.1575 47.8411 81.1167 47.977 81.0339 48.0676C80.9518 48.15 80.8078 48.1912 80.6015 48.1912H79.6747Z" fill="white"/>
<path d="M92.2569 48.3765C90.8562 48.3765 89.7855 47.9935 89.0441 47.2273C88.3108 46.4612 87.9444 45.3821 87.9444 43.9899C87.9444 42.5977 88.3108 41.5186 89.0441 40.7524C89.7855 39.9863 90.8562 39.6033 92.2569 39.6033C93.6489 39.6033 94.7115 39.9863 95.4449 40.7524C96.1863 41.5186 96.557 42.5977 96.557 43.9899C96.557 45.3821 96.1863 46.4612 95.4449 47.2273C94.7115 47.9935 93.6489 48.3765 92.2569 48.3765ZM92.2569 46.9061C93.0063 46.9061 93.5704 46.6631 93.9497 46.177C94.3365 45.6828 94.5305 44.9537 94.5305 43.9899C94.5305 43.0261 94.3365 42.3012 93.9497 41.8151C93.5704 41.3208 93.0063 41.0737 92.2569 41.0737C91.4988 41.0737 90.9261 41.3208 90.5393 41.8151C90.1599 42.3012 89.9709 43.0261 89.9709 43.9899C89.9709 44.9537 90.1599 45.6828 90.5393 46.177C90.9261 46.6631 91.4988 46.9061 92.2569 46.9061Z" fill="white"/>
<mask id="mask0_19001_594" style="mask-type:luminance" maskUnits="userSpaceOnUse" x="0" y="0" width="58" height="53">
<path d="M57.4586 0H0V52.5159H57.4586V0Z" fill="white"/>
</mask>
<g mask="url(#mask0_19001_594)">
<path d="M53.0214 3.54459C53.0214 3.54459 52.032 3.52124 51.0855 3.52124C50.5129 3.52124 50.0764 3.53022 49.7883 3.54819C44.6032 3.85899 41.8925 7.11968 41.7566 7.29212C39.4396 11.4331 40.4952 23.45 40.5417 23.9602C40.5489 24.0465 40.6025 24.1219 40.6813 24.1597C40.7135 24.1741 40.7474 24.1812 40.7832 24.1812C40.8315 24.1812 40.8816 24.1668 40.9228 24.1363C47.0794 19.7456 49.8974 13.7865 51.1016 11.2427C52.329 8.64851 53.2182 4.03145 53.2558 3.83563C53.2684 3.76557 53.2504 3.6937 53.2075 3.63801C53.1628 3.58232 53.0965 3.54998 53.025 3.54819L53.0214 3.54459ZM50.6615 11.0325C49.4967 13.4938 46.8004 19.1959 40.9872 23.486C40.8191 21.2745 40.1695 11.1152 42.152 7.56341C42.1788 7.5311 44.8394 4.32968 49.8152 4.03145C50.0943 4.01529 50.5219 4.0063 51.0837 4.0063C51.7117 4.0063 52.3594 4.01708 52.7208 4.02426C52.5043 5.08241 51.6902 8.85332 50.6615 11.0325Z" fill="#F6F755"/>
<path d="M56.725 0.52453C56.6534 0.429314 56.5496 0.362843 56.4315 0.339488C48.958 -1.14983 43.3327 2.62826 40.631 4.44275C40.3609 4.62419 40.1139 4.78947 39.8957 4.9314C36.8951 6.86086 35.3851 11.3647 35.3224 11.5516C35.2437 11.7851 34.9503 12.378 33.8857 13.8026C33.077 12.6834 31.9194 12.0348 30.4343 11.8678C28.7722 11.681 27.6253 11.9486 26.5142 12.2055C25.7215 12.3887 24.9719 12.563 24.0236 12.5882C23.9825 12.5882 23.9413 12.5882 23.8984 12.5882C23.4314 12.5882 22.9948 12.511 22.5851 12.3923C22.3024 11.9432 22.1789 11.6827 22.136 11.5516C22.0734 11.3612 20.5633 6.85727 17.5628 4.92781C17.3427 4.78588 17.0976 4.6206 16.8275 4.43915C14.1221 2.62826 8.49868 -1.14803 1.02336 0.339488C0.905275 0.362843 0.801497 0.429314 0.729933 0.52453C0.710249 0.549681 -1.14695 3.11871 1.13787 6.34169C1.49929 7.20042 5.40334 16.4471 7.28024 18.7682C9.23044 21.1863 13.1041 24.9446 13.9772 25.5483C13.9772 25.5483 14.0434 25.5986 14.1472 25.7854H14.1401C13.6802 25.7854 13.3063 26.1609 13.3063 26.6226V28.3329C13.3063 28.7048 13.5406 29.0425 13.7589 29.2312C13.9665 29.4108 13.9826 29.5437 13.9826 29.5437C13.9808 29.5258 13.9844 29.4521 14.0273 29.3659C13.9128 29.6012 13.9844 31.9763 15.21 33.9578C15.2458 34.0153 15.2887 34.0638 15.3245 34.1195C15.2493 36.9203 15.2386 38.4994 17.3713 41.0576C18.6131 42.5488 19.7224 44.0255 20.6993 45.328L21.3148 46.1454C21.3595 46.8263 21.5151 47.5179 21.8372 48.1952C23.1719 51.0175 25.5426 52.5087 28.6935 52.5087C31.8442 52.5087 34.2131 51.0175 35.5497 48.1952C35.8431 47.5754 35.9988 46.9431 36.056 46.3179C36.0632 46.3107 36.0721 46.3071 36.0775 46.2999C36.5087 45.7358 36.9506 45.1411 37.3997 44.5357C38.2711 43.3626 39.1729 42.1482 40.08 41.0576C42.2145 38.4994 42.202 36.9203 42.1286 34.1195C42.1662 34.0638 42.2074 34.0153 42.2431 33.9578C43.4687 31.9745 43.5421 29.6012 43.4276 29.3659C43.4705 29.4521 43.4741 29.524 43.4705 29.5437C43.4705 29.5437 43.4866 29.4108 43.6942 29.2312C43.9142 29.0407 44.1486 28.7048 44.1486 28.3311V26.6208C44.1486 26.1591 43.7765 25.7854 43.3542 25.7854H43.3524L43.3095 25.7818C43.4114 25.5968 43.4759 25.5465 43.4759 25.5465C44.3454 24.9428 48.2191 21.1863 50.18 18.7646C52.0533 16.4435 55.9574 7.19863 56.3188 6.33805C58.609 3.11331 56.7464 0.546088 56.7268 0.519141L56.725 0.52453ZM23.6711 41.3864C24.7106 40.9714 25.9917 41.3541 26.5804 42.017C26.9848 42.4715 27.4875 43.2171 27.8346 43.8189C28.0011 44.1063 28.2193 44.3578 28.4734 44.5698C28.4465 44.9866 28.4269 45.6819 28.4948 46.4634C28.3839 47.7012 28.0404 49.1133 27.0993 49.7493C26.3317 50.2684 25.2438 50.1966 23.8626 49.5444C23.4189 49.0486 23.0324 48.4629 22.7121 47.7839C21.5688 45.3675 22.9501 42.5775 23.6711 41.3864ZM28.6935 51.5421C27.1744 51.5421 25.888 51.1631 24.8377 50.4194C25.2134 50.5181 25.5713 50.581 25.9023 50.581C26.4588 50.581 26.9507 50.4391 27.3712 50.1534C28.0922 49.6648 28.5056 48.8222 28.7418 47.9203C28.9779 48.8222 29.3894 49.6648 30.1123 50.1534C30.5327 50.4391 31.0248 50.581 31.5812 50.581C31.8675 50.581 32.1771 50.5307 32.4991 50.4552C31.4596 51.1756 30.1892 51.5439 28.6952 51.5439L28.6935 51.5421ZM34.6748 47.7839C34.3366 48.4988 33.9287 49.1079 33.4546 49.6199C32.152 50.2001 31.1196 50.2469 30.3824 49.7493C29.4413 49.1133 29.0978 47.7012 28.9851 46.4634C29.0567 45.6442 29.0316 44.9166 29.003 44.5088C29.2302 44.3093 29.4306 44.0794 29.5809 43.8171C29.928 43.2153 30.4307 42.4697 30.8351 42.0152C31.4166 41.3595 32.6726 40.9786 33.705 41.3685C34.4225 42.5506 35.8217 45.3549 34.673 47.782L34.6748 47.7839ZM39.3392 40.4397C38.416 41.5535 37.5053 42.7769 36.6268 43.9608C36.421 44.2357 36.2189 44.5088 36.0184 44.7783C35.7841 43.0823 34.9986 41.6002 34.5066 40.8097C34.3832 40.2726 34.0593 39.6402 33.4313 39.3168C31.388 38.2641 29.0799 39.3474 29.0799 39.3474H28.3392C28.3392 39.3474 26.0311 38.2641 23.9878 39.3168C23.3902 39.6241 23.0664 40.2115 22.9304 40.7325C22.4581 41.4798 21.6583 42.9458 21.3917 44.6399C20.4273 43.3536 19.3394 41.9092 18.1156 40.4397C16.491 38.4922 16.2602 37.2724 16.2728 35.2585C17.4304 36.331 18.9727 36.8933 20.8174 36.8933C27.1583 36.8933 28.2104 29.5078 28.2211 29.4287C28.2318 29.3426 28.2605 29.1126 28.7292 29.1126C29.198 29.1126 29.2266 29.3426 29.2391 29.4342C29.2499 29.5078 30.3001 36.8951 36.6411 36.8951C38.484 36.8951 40.0263 36.3346 41.1839 35.2621C41.1964 37.276 40.9656 38.4958 39.3392 40.4432V40.4397ZM43.0626 28.5C42.6278 28.8791 42.4686 29.3299 42.5133 29.639C42.5115 29.8779 42.4399 32.5655 40.733 34.3494C39.7364 35.3914 38.3587 35.9196 36.6411 35.9196C31.1518 35.9196 30.234 29.5725 30.1982 29.3066C30.1087 28.5862 29.5451 28.1389 28.7292 28.1389C27.9134 28.1389 27.3497 28.5862 27.2603 29.303C27.2245 29.5725 26.3066 35.9196 20.8174 35.9196C19.0997 35.9196 17.7238 35.3914 16.7255 34.3494C15.0204 32.5691 14.947 29.8869 14.9434 29.6408C14.9881 29.3317 14.8289 28.8791 14.3941 28.5C14.3225 28.4389 14.2796 28.3562 14.276 28.3365V26.752L15.8971 26.628C15.999 26.6208 16.1046 26.5723 16.1833 26.5058C16.1923 26.4987 17.069 25.7746 19.8512 25.7746C21.6797 25.7746 23.9038 26.0837 26.4641 26.6909C26.5714 26.716 26.7003 26.7627 26.8488 26.8148C27.3175 26.9783 27.9581 27.2011 28.7292 27.2029C29.4986 27.2029 30.1409 26.9783 30.6079 26.8148C30.7564 26.7627 30.887 26.716 30.9926 26.6909C33.5529 26.0819 35.7769 25.7746 37.6055 25.7746C40.3859 25.7746 41.2644 26.4987 41.2644 26.4987C41.3449 26.5741 41.4487 26.6208 41.5596 26.628L42.5884 26.7053C42.5884 26.7053 42.592 26.7053 42.5938 26.7053H42.5956L43.1789 26.7483V28.3257C43.1753 28.3545 43.1306 28.4353 43.059 28.4982L43.0626 28.5ZM55.5012 5.81888C55.4797 5.84942 55.4618 5.88176 55.4475 5.91589C55.4063 6.0147 51.2661 15.8812 49.4286 18.1574C47.5535 20.4749 43.7389 24.1883 42.9248 24.7524C42.6886 24.9177 42.4775 25.2375 42.2789 25.7081L41.7761 25.6705C41.3861 25.401 40.2213 24.8027 37.6073 24.8027C35.7035 24.8027 33.4044 25.1189 30.7707 25.7459C30.6383 25.7783 30.4773 25.8321 30.2912 25.8968C29.8654 26.0459 29.3358 26.2292 28.7292 26.231C28.1209 26.231 27.5913 26.0459 27.1655 25.8968C26.9794 25.8321 26.8183 25.7783 26.6859 25.7459C24.0522 25.1207 21.7531 24.8027 19.8494 24.8027C17.2336 24.8027 16.0706 25.401 15.6806 25.6705L15.1778 25.71C14.9792 25.2393 14.7662 24.9195 14.5301 24.7524C13.7142 24.1865 9.90141 20.4731 8.03345 18.1592C6.19057 15.8812 2.05215 6.01649 2.00922 5.91589C1.9949 5.88176 1.97701 5.84942 1.95554 5.82068C0.321991 3.54808 1.1164 1.76772 1.41162 1.25572C8.39309 -0.0521537 13.5192 3.39358 16.2871 5.25118C16.5627 5.43622 16.8149 5.60509 17.0386 5.75061C19.1659 7.11775 20.6528 10.2167 21.1806 11.7582C19.8101 10.8959 19.0103 9.67423 18.9977 9.65446C18.8958 9.49277 18.7079 9.40831 18.5218 9.43525C18.3339 9.46225 18.1783 9.59694 18.1264 9.78019C17.6218 11.5175 17.9278 13.1146 18.2284 14.0649C17.756 13.9104 17.332 13.711 17.069 13.5781C16.8882 11.0665 16.4857 8.69508 15.6788 7.25609C15.566 7.11775 12.8554 3.85708 7.67028 3.54628C7.3804 3.52831 6.94383 3.51933 6.37129 3.51933C5.42481 3.51933 4.43538 3.54269 4.43538 3.54269C4.36381 3.54448 4.29761 3.57682 4.25288 3.63251C4.20815 3.6882 4.19026 3.76006 4.20278 3.83013C4.24036 4.02595 5.13138 8.643 6.35881 11.2372C7.56111 13.781 10.3791 19.7401 16.5358 24.1308C16.5769 24.1614 16.627 24.1757 16.6753 24.1757C16.7093 24.1757 16.7451 24.1686 16.7773 24.1542C16.8561 24.1183 16.9097 24.0428 16.9169 23.9548C16.9401 23.7051 17.2032 20.6887 17.1924 17.1873C18.35 18.8006 20.2896 19.8461 22.5028 19.8461C24.9504 19.8461 26.3729 19.1616 27.4803 18.3801C27.3569 18.788 27.1673 19.2156 26.8828 19.5371C26.7504 19.6844 26.7218 19.8982 26.8094 20.0761C26.8971 20.254 27.0849 20.3581 27.28 20.3455C27.3927 20.3366 30.0712 20.103 31.6671 17.7496C31.8174 17.5268 31.7601 17.225 31.5383 17.0741C31.3182 16.9232 31.0176 16.9807 30.8655 17.2016C30.1087 18.3191 29.0298 18.8688 28.239 19.1347C28.6165 18.2149 28.6487 17.3058 28.6505 17.252C28.6559 17.0633 28.5521 16.8873 28.3821 16.8028C28.214 16.7184 28.0099 16.7399 27.8633 16.8585L27.815 16.898C26.6054 17.8699 25.353 18.8724 22.501 18.8724C19.8315 18.8724 17.6254 17.0957 17.1316 14.6955V14.6793C17.6308 14.8985 18.2964 15.141 18.9512 15.2237C19.1319 15.2452 19.3055 15.1679 19.4093 15.0189C19.5131 14.8716 19.5255 14.6775 19.4415 14.5176C19.4325 14.4997 18.6542 12.9618 18.8564 11.0467C19.7671 12.0726 21.5563 13.6248 24.0451 13.5565C25.09 13.5278 25.922 13.3355 26.7271 13.1487C27.806 12.899 28.8241 12.6618 30.3216 12.8289C31.7476 12.9888 32.7603 13.6589 33.4151 14.8805C33.4921 15.026 33.637 15.1212 33.8017 15.1338C33.9645 15.15 34.1237 15.0763 34.2239 14.947C35.3833 13.4451 36.0399 12.4355 36.2349 11.8552C36.7306 10.3515 38.2407 7.14111 40.4127 5.74522C40.6364 5.5997 40.8887 5.43263 41.1642 5.24579C43.9304 3.38639 49.0582 -0.0575434 56.0379 1.24853C56.3367 1.76413 57.1311 3.54268 55.494 5.81349L55.5012 5.81888ZM16.4696 23.4876C10.6547 19.1958 7.96011 13.4954 6.79537 11.0342C5.76476 8.85677 4.95067 5.0841 4.73417 4.02595C5.09559 4.01876 5.7415 4.00799 6.37129 4.00799C6.93308 4.00799 7.36075 4.01697 7.63982 4.03313C12.6031 4.33136 15.2744 7.53096 15.2798 7.52917C16.0098 8.83521 16.3873 11.0162 16.5644 13.3661C16.4732 13.3625 16.3801 13.384 16.2996 13.4325C16.1493 13.5223 16.0581 13.6876 16.0634 13.8655C16.0903 14.762 16.3175 15.6027 16.6951 16.3591C16.7433 19.4976 16.5519 22.4187 16.4696 23.4876Z" fill="#F6F755"/>
<path d="M25.0275 26.8598C18.6866 25.5304 16.8097 26.8922 16.7685 26.9299C16.6576 26.9874 15.6843 27.5748 15.6897 30.4062C15.6897 30.4583 15.6968 31.7015 16.3409 32.9339C16.9403 34.0819 18.2231 35.449 20.9267 35.449C22.1451 35.449 23.2222 35.0825 24.1258 34.3603C24.2313 34.2776 24.2474 34.1231 24.1651 34.019C24.0828 33.9147 23.9289 33.8968 23.8252 33.9794C23.0075 34.6315 22.0323 34.9621 20.9267 34.9621C18.9496 34.9621 17.5522 34.204 16.7703 32.7075C16.1799 31.5793 16.1727 30.4529 16.1727 30.4044C16.1674 27.8713 16.9868 27.3611 17.0226 27.3395C17.0405 27.3269 18.8601 26.0622 24.9273 27.3341C25.3549 27.424 25.9078 27.6808 26.0903 27.9809C26.2997 28.3204 26.2173 29.2474 26.1851 29.6283C26.1851 29.6336 26.0831 30.275 25.7754 31.1014C25.7288 31.2272 25.7915 31.3673 25.9167 31.414C26.0402 31.4625 26.1815 31.3978 26.2281 31.2721C26.5555 30.3954 26.6575 29.7288 26.6646 29.6857C26.7273 28.9671 26.772 28.1659 26.5036 27.7258C26.2334 27.2838 25.5678 26.9712 25.0275 26.858V26.8598Z" fill="#F6F755"/>
<path d="M25.6965 31.9168C25.5783 31.8539 25.4317 31.9024 25.3708 32.021C25.1292 32.4917 24.8484 32.9157 24.5388 33.2822C24.4529 33.3845 24.4655 33.5373 24.5656 33.6253C24.6122 33.6648 24.6676 33.6828 24.7231 33.6828C24.7911 33.6828 24.8591 33.654 24.9074 33.5965C25.242 33.2031 25.5426 32.7468 25.8002 32.2438C25.8611 32.1252 25.8145 31.9778 25.6965 31.9168Z" fill="#F6F755"/>
<path d="M40.7241 26.9516C40.6775 26.9157 39.5181 26.0678 36.0023 26.33C35.8699 26.3409 35.768 26.4576 35.7787 26.5905C35.7894 26.7253 35.9093 26.8241 36.0382 26.8151C39.3339 26.5672 40.4217 27.3325 40.4611 27.3577C40.47 27.3631 41.2877 27.8733 41.2823 30.4063C41.2823 30.453 41.2751 31.5795 40.6865 32.7095C39.9046 34.206 38.5054 34.9642 36.5301 34.9642C32.1394 34.9642 31.3057 29.8494 31.2735 29.6464C31.2359 29.2153 31.1589 28.3206 31.3665 27.9829C31.5186 27.7349 31.9766 27.4708 32.4579 27.354C32.5886 27.3217 32.6673 27.1906 32.6369 27.0595C32.6047 26.9301 32.4758 26.8529 32.3435 26.8798C31.8711 26.9948 31.2234 27.2858 30.9532 27.7278C30.6848 28.1661 30.7296 28.9691 30.7922 29.7039C30.8012 29.7614 31.7208 35.4492 36.5284 35.4492C39.2319 35.4492 40.5147 34.082 41.1141 32.9341C41.7582 31.6998 41.7672 30.4585 41.7672 30.4063C41.7725 27.5732 40.7992 26.9857 40.7241 26.9516Z" fill="#F6F755"/>
<path d="M33.3954 27.1602C33.4097 27.1602 33.424 27.1602 33.4383 27.1566C33.9984 27.056 34.5369 26.9734 35.0433 26.9123C35.1757 26.8961 35.2705 26.7757 35.2544 26.6428C35.2383 26.5081 35.1148 26.411 34.986 26.4308C34.4707 26.4937 33.9214 26.5763 33.3524 26.6787C33.2218 26.7021 33.1341 26.8297 33.1574 26.9608C33.1789 27.0775 33.2809 27.1602 33.3954 27.1602Z" fill="#F6F755"/>
<path d="M14.7878 27.3C14.6948 27.3881 14.6483 27.5139 14.6483 27.6396C14.6483 27.7654 14.6966 27.8929 14.7878 27.9845C14.8791 28.078 15.0061 28.1247 15.1313 28.1247C15.2566 28.1247 15.3836 28.0762 15.4749 27.9845C15.5625 27.8911 15.6144 27.7654 15.6144 27.6396C15.6144 27.5139 15.5607 27.3863 15.4749 27.3C15.2906 27.115 14.9721 27.115 14.7878 27.3Z" fill="#F6F755"/>
<path d="M41.9822 27.3C41.8945 27.3881 41.8426 27.5139 41.8426 27.6396C41.8426 27.7654 41.8963 27.8929 41.9875 27.9845C42.0752 28.078 42.2004 28.1247 42.3257 28.1247C42.4509 28.1247 42.5779 28.0762 42.6692 27.9845C42.7604 27.8911 42.8088 27.7708 42.8088 27.6396C42.8088 27.5084 42.7604 27.3863 42.6692 27.3C42.4903 27.115 42.1611 27.115 41.9822 27.3Z" fill="#F6F755"/>
</g>
</g>
<defs>
<clipPath id="clip0_19001_594">
<rect width="97" height="52.5159" fill="white"/>
</clipPath>
</defs>
</svg>
