<svg width="200" height="32" viewBox="0 0 200 32" fill="none" xmlns="http://www.w3.org/2000/svg">
<path d="M2.69687e-06 10.8529C2.69687e-06 22.6183 -0.00521832 22.411 0.443786 23.9451C1.6185 27.9516 4.95993 30.9629 9.15759 31.7922C10.2383 31.9995 12.4207 31.984 13.5067 31.7507C15.0782 31.4138 16.2268 30.9266 17.5634 30.0507C21.6879 27.3089 23.4996 22.1155 21.9751 17.3679C21.4269 15.6834 20.5341 14.2374 19.2027 12.9105C17.5529 11.2623 15.6212 10.2413 13.3083 9.78519C12.238 9.57787 10.1183 9.59342 9.04273 9.82666C7.21539 10.2206 5.57078 10.9876 4.12979 12.1383L3.86352 12.3456V2.56528L1.93176 1.28508L2.69687e-06 0.00488281V10.8529ZM13.0577 13.6673C15.0782 14.1856 16.8011 15.5383 17.7826 17.3679C19.7405 20.996 18.2682 25.5156 14.5143 27.3763C13.089 28.0812 11.3347 28.3092 9.82066 27.9982C7.07442 27.4333 4.96515 25.5104 4.12979 22.8101C3.93662 22.1777 3.91051 21.9808 3.91051 20.8302C3.90007 19.7262 3.92618 19.4618 4.08803 18.9124C4.78764 16.4972 6.57843 14.6106 8.91743 13.8383C9.31944 13.7035 9.86765 13.5584 10.1235 13.5169C10.8335 13.4029 12.3476 13.4858 13.0524 13.6673" fill="white"/>
<path d="M48.7378 11.0143C48.7639 23.2824 48.7326 22.5257 49.3278 24.2983C50.4973 27.7813 53.3532 30.5231 56.8617 31.5338C57.6291 31.7514 59.0284 31.9795 59.6131 31.9795H59.9838V28.1648L59.3416 28.1078C57.6083 27.9627 55.8488 27.1023 54.6219 25.7962C53.7343 24.8581 53.1652 23.8059 52.7945 22.4532C52.6274 21.8001 52.617 21.6705 52.617 17.6278V13.471L55.901 13.4451L59.1798 13.4296V9.59415H52.5752V2.51936L50.7479 1.32209C49.7507 0.669032 48.8788 0.0989029 48.8161 0.067805C48.7222 0.0107921 48.7117 1.66417 48.7378 11.0195" fill="white"/>
<path d="M88.4329 11.092C88.459 22.0125 88.459 22.194 88.6261 22.9455C89.143 25.2778 90.0984 27.0297 91.743 28.6675C92.6306 29.5383 93.6695 30.3053 94.6041 30.777C95.8624 31.3989 97.5174 31.8499 98.9532 31.9535L99.6841 32.0002V28.1388H99.303C98.7234 28.1388 97.5383 27.8693 96.8543 27.5894C95.1366 26.8794 93.6017 25.3763 92.8916 23.7229C92.7611 23.4016 92.5784 22.8937 92.4792 22.5879C92.3173 22.0385 92.3173 21.8467 92.286 12.2789L92.2599 2.52968L91.7221 2.17723C91.4245 1.9751 90.5526 1.41015 89.7904 0.912583L88.3964 0.0107422L88.4277 11.0972L88.4329 11.092Z" fill="#FF2727"/>
<path d="M146.699 15.8755V31.7407H150.562V25.0183L152.171 23.028C153.058 21.9241 153.794 21.0274 153.815 21.0274C153.836 21.0274 155.126 23.4323 156.692 26.3814L159.543 31.7355H161.772C163.004 31.7355 164.012 31.7199 164.012 31.7096C164.012 31.694 162.331 28.5583 160.268 24.754C158.206 20.9393 156.514 17.7984 156.509 17.7621C156.494 17.731 157.961 15.8755 159.772 13.6468C161.574 11.4181 163.051 9.57817 163.051 9.55226C163.051 9.52634 161.949 9.51079 160.613 9.51079H158.164L154.426 14.1392C152.374 16.6892 150.667 18.7728 150.636 18.7728C150.594 18.7832 150.573 15.1188 150.573 10.6459V2.52412L149.785 2.011C149.356 1.72075 148.49 1.15581 147.858 0.746351L146.709 0V15.8755H146.699Z" fill="#FF2727"/>
<path d="M63.367 10.972C63.367 22.9758 63.3513 22.5197 63.8682 24.142C64.9542 27.5524 67.7108 30.3201 71.0993 31.3982C72.4776 31.8387 73.1041 31.932 74.6025 31.932C76.1009 31.932 76.7692 31.8284 78.1058 31.4033C80.9408 30.4911 83.3477 28.4283 84.7103 25.7435C85.0862 25.0023 85.5718 23.4837 85.718 22.6182C85.8798 21.6334 85.8694 19.9023 85.7075 18.9331C84.9348 14.3668 81.4577 10.8113 76.7953 9.811C75.7146 9.58813 73.6784 9.56221 72.6029 9.7799C70.9426 10.1012 69.1832 10.858 67.951 11.7857C67.5751 12.076 67.2357 12.304 67.2096 12.304C67.1835 12.304 67.1626 10.0961 67.1626 7.39572V2.50298L65.3353 1.32126C64.3381 0.668199 63.4819 0.113618 63.4453 0.108435C63.414 0.0928864 63.3827 4.98563 63.3827 10.9772M76.4664 13.6723C76.8214 13.7708 77.4427 13.9989 77.8343 14.1906C82.5227 16.4867 83.4625 22.5974 79.6773 26.1582C79.0508 26.7438 78.5757 27.0548 77.6881 27.4695C76.5395 28.0033 76.0279 28.107 74.5712 28.1018C73.4591 28.0914 73.2503 28.0759 72.6133 27.8841C69.8984 27.06 67.9197 24.9505 67.3454 22.2709C67.194 21.5453 67.194 20.0319 67.3506 19.2959C67.9876 16.3727 70.3161 14.1181 73.3025 13.5479C74.1013 13.3976 75.6311 13.4598 76.456 13.6671" fill="#FF2727"/>
<path d="M188.785 9.57264C188.754 9.59855 188.728 14.6001 188.728 20.685V31.7403H192.586L192.612 25.6814C192.644 19.7106 192.644 19.6225 192.821 18.9901C193.046 18.192 193.537 17.1502 193.996 16.5178C194.398 15.9581 195.286 15.0977 195.818 14.7349C196.826 14.0559 198.22 13.5584 199.358 13.4651L200 13.4081V9.57264L199.301 9.62965C197.813 9.74886 196.272 10.1635 194.967 10.8114C194.314 11.1379 193.009 11.9879 192.832 12.2004C192.774 12.2626 192.701 12.3144 192.665 12.3144C192.628 12.3144 192.592 11.6821 192.592 10.915V9.51562H190.717C189.678 9.51562 188.812 9.54154 188.785 9.57264Z" fill="#FF2727"/>
<path d="M34.187 9.6772C31.5713 10.0037 29.4046 11.0662 27.5355 12.9477C25.8856 14.601 24.9563 16.2959 24.4603 18.5764C24.2045 19.7737 24.2045 21.8521 24.4603 23.0182C24.7109 24.1222 25.0503 25.0655 25.5306 25.9777C27.1073 28.9735 29.958 31.083 33.3725 31.7879C34.3854 31.9952 36.6252 31.9952 37.638 31.7879C42.7181 30.7409 46.3675 26.6411 46.7434 21.5255L46.8009 20.7895H42.9373L42.8799 21.4271C42.7859 22.5777 42.3056 23.9045 41.6269 24.9204C41.1779 25.5942 39.9979 26.693 39.2931 27.1024C37.2256 28.2997 34.8083 28.4552 32.5789 27.5326C31.942 27.2683 30.8978 26.5738 30.454 26.1177L30.1094 25.7652L38.1601 21.5048C42.598 19.1621 46.2213 17.2029 46.2213 17.1511C46.2213 16.9334 45.1406 14.9276 44.6759 14.2797C43.0522 11.9992 40.5461 10.3976 37.7425 9.82751C36.8183 9.64611 35.0589 9.56318 34.1922 9.6772M37.3248 13.6629C38.4786 13.9687 39.8831 14.7358 40.5722 15.4511L40.8437 15.7309L39.3244 16.5291C38.4943 16.9697 35.675 18.4624 33.0592 19.8462L28.3082 22.3652L28.2351 22.1475C28.1933 22.0335 28.162 21.396 28.162 20.7377C28.162 19.6596 28.1776 19.4679 28.3813 18.8304C29.2323 16.0419 31.4094 14.0827 34.2496 13.5385C35.038 13.3882 36.4946 13.4504 37.3248 13.6577" fill="white"/>
<path d="M110.517 9.67687C106.226 10.2107 102.634 13.0665 101.219 17.0523C100.759 18.3532 100.613 19.2239 100.613 20.784C100.603 22.3597 100.702 22.9661 101.177 24.381C102.441 28.1646 105.662 30.9427 109.745 31.7927C110.705 31.9897 112.971 31.9897 113.932 31.7927C118.547 30.8235 121.904 27.5219 122.886 23.0023C123.137 21.8362 123.137 19.7422 122.886 18.5761C122.395 16.3163 121.419 14.5385 119.779 12.9111C118.119 11.2577 116.187 10.2314 113.927 9.80126C113.123 9.65095 111.295 9.58357 110.523 9.68205M113.655 13.6678C114.365 13.8492 115.42 14.3208 116.015 14.7251C116.563 15.0983 117.446 15.9638 117.853 16.5236C119.012 18.1303 119.498 20.302 119.106 22.1523C118.777 23.7591 118.067 25.0133 116.85 26.1588C115.368 27.5478 113.483 28.2372 111.442 28.1231C109.599 28.0195 108.1 27.3716 106.748 26.0759C105.662 25.0393 105.015 23.9508 104.628 22.51C104.404 21.6548 104.419 19.8459 104.66 19.0114C105.495 16.109 107.672 14.1031 110.575 13.5537C111.363 13.4034 112.82 13.4656 113.65 13.673" fill="white"/>
<path d="M108.722 16.0726C108.132 16.4562 107.208 17.415 106.926 17.9437L106.722 18.3117L110.528 22.0901L114.329 25.8633L114.71 25.6612C115.211 25.4072 116.49 24.1322 116.746 23.6398L116.95 23.2614L113.165 19.5038C111.082 17.4357 109.348 15.7461 109.301 15.7461C109.254 15.7461 108.993 15.8912 108.722 16.0674" fill="#FF2727"/>
<path d="M134.863 9.68732C132.962 9.92056 130.916 10.7447 129.428 11.8745C128.608 12.4965 127.407 13.7612 126.87 14.5593C125.966 15.9017 125.397 17.3582 125.105 18.9856C124.901 20.1829 124.938 22.0073 125.194 23.1113C126.217 27.5531 129.47 30.751 133.986 31.7513C135.072 31.9897 137.165 32.0053 138.267 31.7928C139.144 31.6166 140.23 31.2641 141.034 30.8961C141.687 30.6007 142.981 29.7714 143.488 29.3205L143.796 29.0562L142.491 27.636L141.196 26.2211L140.987 26.4128C140.59 26.7653 139.781 27.268 139.118 27.5531C137.212 28.3668 134.795 28.315 132.983 27.408C131.422 26.6253 130.3 25.4955 129.537 23.9406C128.974 22.7899 128.791 21.8933 128.843 20.5042C128.89 19.2499 129.036 18.6746 129.543 17.6277C130.216 16.2438 131.078 15.3005 132.362 14.5179C134.889 12.9682 138.105 13.1029 140.564 14.8548C140.888 15.088 141.185 15.2539 141.222 15.2124C141.253 15.1813 141.828 14.5386 142.496 13.7974L143.712 12.4395L143.446 12.2166C142.172 11.1126 140.115 10.1538 138.236 9.79617C137.405 9.63549 135.677 9.57848 134.852 9.68214" fill="#FF2727"/>
<path d="M174.046 9.6768C169.013 10.3091 165.061 14.0305 164.226 18.9388C164.059 19.9132 164.059 21.6495 164.226 22.6291C164.372 23.5102 164.863 25.0185 165.233 25.7441C166.82 28.8798 169.702 31.0463 173.279 31.7875C174.229 31.9844 176.438 31.9844 177.383 31.7875C180.959 31.0463 183.841 28.885 185.428 25.7441C186.039 24.5468 186.561 22.5099 186.561 21.323V20.7788H182.791L182.744 21.0742C182.718 21.2401 182.682 21.5925 182.656 21.8568C182.593 22.427 182.275 23.4584 181.998 24.013C181.465 25.0496 180.458 26.2054 179.518 26.8532C178.98 27.2212 177.764 27.7706 177.101 27.9417C176.667 28.0557 176.255 28.0868 175.289 28.0868C174.172 28.0764 173.968 28.0609 173.315 27.8639C172.156 27.5115 170.809 26.7289 170.12 26.0032L169.896 25.77L177.946 21.5096C182.995 18.8403 185.997 17.2077 185.997 17.1351C185.997 16.933 185.24 15.3988 184.828 14.7769C183.152 12.2009 180.562 10.4387 177.523 9.82711C176.599 9.63534 174.897 9.56278 174.046 9.66644M177.179 13.6522C178.327 13.9476 179.763 14.7458 180.463 15.4818L180.687 15.715L174.448 19.0166C171.018 20.8306 168.183 22.3181 168.152 22.3233C167.927 22.3544 167.87 20.1827 168.074 19.2757C168.716 16.3318 171.034 14.0979 174.025 13.5278C174.829 13.3775 176.354 13.4397 177.184 13.647" fill="#FF2727"/>
</svg>
