<svg width="108" height="32" viewBox="0 0 108 32" fill="none" xmlns="http://www.w3.org/2000/svg">
<path fill-rule="evenodd" clip-rule="evenodd" d="M4.45029 18.4523L4.87907 19.0955L4.05214 19.2902C3.40735 19.4428 2.75935 19.5954 2.11295 19.7449C1.46333 19.8976 0.812105 20.0455 0.160874 20.1888C-0.0406204 20.2324 -0.0406204 20.3009 0.0931719 20.4333C0.206009 20.547 0.315622 20.6669 0.425235 20.7868L1.28924 21.726C4.41483 25.1196 7.54041 28.5147 10.6644 31.9115C10.7401 31.994 10.7966 32.0189 10.911 31.9847C11.5832 31.7822 12.257 31.5875 12.9308 31.3913L14.172 31.0284L15.9693 30.4973L17.807 29.9538L20.7891 29.0816L23.0265 28.4275C24.2499 28.0756 25.4702 27.7158 26.6888 27.3467H26.6904L27.3626 27.1442L27.303 27.0819C27.2708 27.0461 27.2369 27.0103 27.2014 26.9776L27.0805 26.8701L27.0773 26.8686C26.1488 26.0447 25.2187 25.2224 24.2886 24.4016L23.3747 23.6027C22.7669 23.0731 22.1592 22.5436 21.566 22.0016C20.9583 21.4503 20.341 20.9068 19.7171 20.3726L19.6897 20.3492L18.7225 19.5082C18.7451 19.4132 18.7886 19.3244 18.8515 19.2481L18.8805 19.2076L20.7294 16.5398C22.8347 13.4997 24.9366 10.4581 27.0338 7.41331L28.8069 4.85447L29.9772 3.16311L31.4892 0.974943L32.1647 0L31.9067 0.247629C31.054 1.10265 30.1981 1.95612 29.3421 2.80802L27.98 4.16453L24.3628 7.77774L21.213 10.9237C19.4705 12.6649 17.728 14.4061 15.9806 16.1411C15.9323 16.1909 15.8839 16.2423 15.8371 16.2953C15.7034 16.4432 15.568 16.5912 15.3777 16.6768L15.3197 16.6815C15.2778 16.6846 15.2359 16.6877 15.1956 16.6971L14.9812 16.7469C13.7545 17.0319 12.5278 17.3169 11.3027 17.605L9.23135 18.0972L8.30931 18.3183C8.1723 18.3339 8.05785 18.2763 7.93856 18.2124L7.65486 18.0629L6.19443 17.2904C5.19824 16.764 4.19882 16.2392 3.19941 15.7175C3.1301 15.6801 3.06078 15.6427 2.99308 15.6022C2.79965 15.4901 2.59493 15.3733 2.33702 15.3094L2.69648 15.8389L3.45249 16.9572L4.4519 18.4523H4.45029ZM10.5773 19.5923C10.4371 19.5191 10.2952 19.4459 10.155 19.3727C10.4403 19.2606 10.7385 19.1983 11.0367 19.136C11.1915 19.1048 11.3462 19.0706 11.4994 19.0316C11.9475 18.9164 12.3988 18.8167 12.8502 18.7155L13.3435 18.6065C13.3838 18.5971 13.4241 18.594 13.466 18.5909L13.524 18.5862L13.1323 18.9787L11.9926 20.1249C11.9008 20.2184 11.8282 20.2636 11.6831 20.1826C11.3172 19.9801 10.9497 19.7839 10.5773 19.5923ZM17.6925 20.9317C17.7538 20.8367 17.8134 20.7401 17.9085 20.6716L18.4485 21.1637C18.8418 21.5251 19.2368 21.8864 19.6381 22.2415C20.7085 23.1884 21.782 24.1306 22.8556 25.0744L23.9582 26.0416L24.2967 26.3359L24.4805 26.4932L23.8373 26.6879C23.3747 26.8281 22.9265 26.9636 22.4784 27.0944L21.1679 27.4744L19.8267 27.8637C19.0175 28.1005 18.2083 28.3403 17.3975 28.5802L15.1359 29.2467L13.8109 29.6361C13.0146 29.8666 12.2183 30.0986 11.4252 30.3369C11.2721 30.3836 11.1899 30.3572 11.0867 30.2435L7.22124 26.0478L7.21802 26.0447L5.0854 23.7304L4.25686 22.8271C3.78294 22.3069 3.30902 21.7883 2.82866 21.2759C2.66424 21.0983 2.73517 21.0672 2.91087 21.0267C3.66849 20.8554 4.42289 20.6809 5.17889 20.505H5.18051L5.47711 20.4364L5.64959 20.3913L5.73018 20.3695C5.98004 20.6545 6.18637 20.9722 6.3927 21.2883L6.63449 21.6543C7.13581 22.3894 7.63068 23.1276 8.12394 23.8659L9.06532 25.2675C9.61016 26.0774 10.1582 26.8841 10.7047 27.6909L10.7079 27.694L11.6719 29.1175C11.8556 29.3885 11.8685 29.3838 12.0523 29.1175L13.3273 27.2782L14.7862 25.1725C15.7388 23.7895 16.6883 22.405 17.6361 21.0173L17.6925 20.9317Z" fill="white"/>
<path d="M78.3861 23.5976C78.1088 23.9091 77.8009 24.1941 77.4689 24.4495C76.3131 25.2905 75.0219 25.5942 73.6099 25.4369C72.5299 25.317 71.5111 25.0257 70.5955 24.4215C69.4655 23.6895 68.6547 22.5822 68.3146 21.3098C67.6472 18.8989 67.9503 16.5518 69.04 14.3325C69.9878 12.3982 71.5514 11.1056 73.6357 10.5168C75.4298 9.98733 77.3625 10.0917 79.0841 10.8096C80.1802 11.2597 81.0104 12.0151 81.502 13.1099C81.7809 13.7267 81.8824 14.3808 81.9211 15.0505C81.9292 15.1595 81.8937 15.2078 81.7744 15.2062C81.0184 15.2016 80.2608 15.2031 79.5048 15.2093C79.3533 15.2093 79.3468 15.133 79.3388 15.0271L79.3371 15.0116C79.2711 14.2796 79.0115 13.6255 78.457 13.1271C77.917 12.6427 77.2481 12.4138 76.5404 12.3328C75.3282 12.1926 74.1757 12.3608 73.1505 13.0897C72.3122 13.6862 71.7223 14.4805 71.308 15.404C70.6342 16.8789 70.4037 18.508 70.6439 20.1043C70.8309 21.3611 71.4192 22.3937 72.6121 22.9746C73.4874 23.3998 74.4191 23.4637 75.3685 23.3126C76.9176 23.0665 77.8993 22.1165 78.5296 20.7429C78.6827 20.4096 78.7923 20.0623 78.9019 19.715L78.9293 19.6309C78.9906 19.4362 78.9616 19.3786 78.7407 19.3801C78.2104 19.3848 77.6801 19.3848 77.1497 19.3848C76.5275 19.3848 75.9053 19.3848 75.2847 19.3926C75.0139 19.3957 74.9849 19.31 75.0381 19.0811C75.1509 18.5952 75.2524 18.1046 75.3411 17.614C75.3733 17.438 75.4813 17.4396 75.6006 17.4411H80.4381C80.7702 17.4427 81.1055 17.4442 81.4375 17.4411C81.5971 17.438 81.6745 17.4474 81.6277 17.6545C81.4021 18.6902 81.1844 19.7259 80.9668 20.7615L80.6992 22.0246L80.5026 22.9435C80.3624 23.5976 80.2221 24.2502 80.0899 24.9058C80.0529 25.0865 79.99 25.1519 79.7998 25.1457C79.4049 25.1317 79.0083 25.1317 78.6134 25.1472C78.4199 25.155 78.378 25.0818 78.3829 24.9074C78.3909 24.6146 78.3893 24.3218 78.3877 24.0088V24.0056L78.3861 23.5976Z" fill="white"/>
<path fill-rule="evenodd" clip-rule="evenodd" d="M108 25.1565L107.36 25.1518C106.791 25.1456 106.224 25.144 105.655 25.1471C105.445 25.1487 105.374 25.0926 105.343 24.8808C105.252 24.2469 105.153 23.6162 105.055 22.9839L104.832 21.5292C104.805 21.3423 104.755 21.2629 104.542 21.2645C102.766 21.2738 100.988 21.2723 99.2116 21.2645C99.0343 21.2645 98.9472 21.3283 98.865 21.4716L97.9349 23.0726L96.8227 24.9929C96.755 25.1129 96.6776 25.144 96.5502 25.144H96.4858C94.8722 25.1378 93.257 25.1393 91.6435 25.1471C91.442 25.1487 91.3855 25.0583 91.3469 24.901C91.2098 24.3279 91.2453 23.7486 91.2937 23.1723C91.3146 22.9076 91.3452 22.6428 91.3743 22.378C91.4258 21.9264 91.4774 21.4778 91.4871 21.0262C91.4984 20.6026 91.4935 20.179 91.2389 19.8114C90.9261 19.3566 90.4442 19.2118 89.938 19.1729C89.0401 19.1028 88.1407 19.1106 87.2396 19.1184C86.785 19.1215 86.3321 19.1261 85.8775 19.1184C85.7147 19.1184 85.6986 19.2149 85.6824 19.313L85.6744 19.3629C85.4455 20.4608 85.2166 21.5588 84.9909 22.6568L84.8491 23.3265C84.7378 23.8576 84.6266 24.3887 84.5234 24.9213C84.4896 25.0988 84.4154 25.1471 84.2446 25.144C83.524 25.1347 82.8019 25.1362 82.0813 25.1456C81.8879 25.1487 81.8686 25.0864 81.904 24.9166C82.768 20.8377 83.6159 16.7542 84.4477 12.6691L84.6669 11.621L84.8587 10.7145V10.713C84.8813 10.604 84.8958 10.5292 85.0489 10.5308L87.5104 10.537C88.8806 10.537 90.2491 10.5401 91.6177 10.5557C92.4365 10.5666 93.2409 10.7052 93.9921 11.0743C94.9415 11.5415 95.5234 12.2844 95.7249 13.3123C95.9232 14.3277 95.849 15.3198 95.4025 16.2652C94.977 17.1591 94.2484 17.6995 93.3328 18.0141C93.1571 18.0718 92.9782 18.1247 92.7976 18.1699L92.5123 18.2478C92.9491 18.4331 93.3086 18.6589 93.5681 19.0109C93.9389 19.5108 94.0356 20.098 94.0598 20.6991C94.0791 21.2209 94.0195 21.7348 93.9582 22.2503C93.926 22.5353 93.8921 22.8219 93.8728 23.11C93.8405 23.5913 93.8148 24.0725 93.8954 24.5522L93.8986 24.5724C93.9228 24.7095 93.9469 24.8528 94.0549 24.9945L94.2564 24.669C94.3999 24.4385 94.5401 24.2127 94.6772 23.9837L96.4519 21.0231C97.3288 19.5591 98.2073 18.0967 99.0859 16.6343V16.6312C100.206 14.77 101.326 12.9089 102.431 11.0369C102.651 10.6631 102.872 10.4872 103.327 10.523C103.82 10.5588 104.318 10.5494 104.816 10.5385L105.252 10.5308C105.405 10.5292 105.461 10.5744 105.485 10.7286C105.685 11.9293 105.89 13.1301 106.098 14.3293L106.425 16.1764L106.427 16.1857L106.73 17.8989C107.012 19.5124 107.291 21.1274 107.568 22.7425L107.623 23.0508C107.718 23.6099 107.815 24.1691 107.913 24.7282C107.921 24.8076 107.929 24.8886 108 24.9462V25.158V25.1565ZM88.405 17.1778H89.8284C90.3926 17.1747 90.9487 17.1249 91.4903 16.9473C92.7638 16.5299 93.4472 15.421 93.2216 14.105C93.141 13.6378 92.9104 13.2578 92.4833 13.0117C91.9384 12.6971 91.3356 12.6426 90.7295 12.6333C89.9993 12.6239 89.2707 12.6255 88.5404 12.6286H87.6184C87.0752 12.6286 87.0752 12.6286 86.9672 13.1737L86.9591 13.2048V13.208L86.951 13.25L86.7657 14.144C86.5706 15.0878 86.374 16.0316 86.1725 16.9738C86.1354 17.1529 86.1886 17.1809 86.3498 17.1794C86.8592 17.1747 87.3685 17.1763 87.8795 17.1763H88.405V17.1778ZM103.617 13.1161L103.533 13.2407C103.496 13.2967 103.461 13.3544 103.427 13.412L102.508 15.0364C101.739 16.3913 100.972 17.7463 100.2 19.1012C100.1 19.2741 100.119 19.3193 100.322 19.3177C101.65 19.3115 102.977 19.313 104.304 19.3177C104.459 19.3177 104.513 19.3021 104.484 19.1152C104.383 18.4424 104.289 17.7665 104.194 17.0906V17.0781C104.052 16.0549 103.906 15.0317 103.751 14.01L103.749 14.0007C103.704 13.711 103.661 13.4167 103.617 13.1161ZM67.7075 16.6C67.6866 18.391 67.4093 19.9749 66.6517 21.4498C65.9102 22.8966 64.8302 24.0102 63.3472 24.7142C61.4934 25.5941 59.5671 25.7187 57.6231 25.1315C55.9225 24.6207 54.699 23.5227 54.0123 21.8594C53.5223 20.6773 53.4385 19.4516 53.5239 18.1948C53.6464 16.3944 54.1187 14.7077 55.2116 13.2422C56.556 11.4434 58.3662 10.456 60.6036 10.2442C61.8771 10.1227 63.1151 10.2676 64.2821 10.8127C66.0279 11.6287 67.0692 13.0195 67.5221 14.8697C67.6721 15.488 67.7091 16.1157 67.7075 16.6ZM61.1791 12.2953C60.623 12.2704 60.0024 12.4043 59.4059 12.6691C58.2969 13.1597 57.5232 13.9976 56.988 15.0551C56.1369 16.7324 55.8484 18.511 56.1917 20.3627C56.3545 21.2427 56.7591 22.0276 57.4958 22.5789C58.7112 23.4916 60.0781 23.5804 61.4789 23.1443C62.6589 22.7783 63.4842 21.9404 64.0726 20.8829C65.0284 19.162 65.3412 17.3164 65.0236 15.3743C64.8947 14.5707 64.5707 13.8434 63.9726 13.2718C63.2214 12.5554 62.2978 12.2829 61.1791 12.2953Z" fill="white"/>
<path d="M52.063 15.4066H51.7551C51.5069 15.4035 51.257 15.4035 51.0088 15.4098C50.8379 15.416 50.788 15.363 50.7831 15.1886C50.7638 14.508 50.5929 13.8679 50.1545 13.3306C49.6225 12.6812 48.8971 12.3993 48.0847 12.3183C45.6216 12.0691 43.9581 13.449 43.0699 15.416C42.4074 16.8768 42.1769 18.4857 42.4058 20.0649C42.575 21.2952 43.1344 22.3153 44.2708 22.9196C45.475 23.5582 47.4012 23.622 48.5748 22.605C49.2792 21.993 49.7192 21.2158 49.9933 20.3405C50.069 20.1038 50.1658 20.0135 50.4269 20.0213C51.0862 20.0431 51.7455 20.0368 52.4048 20.0244C52.6111 20.0197 52.6659 20.0664 52.6111 20.272C52.2694 21.5709 51.7197 22.7577 50.7461 23.7155C49.3856 25.0548 47.7124 25.5439 45.8441 25.4644C44.54 25.4084 43.3101 25.0907 42.2301 24.3275C40.9131 23.3993 40.1716 22.102 39.8847 20.543C39.6429 19.241 39.7299 17.939 39.9927 16.6495C40.2909 15.1824 40.8889 13.8555 41.8916 12.7232C42.7379 11.7576 43.8372 11.0287 45.0736 10.6129C46.455 10.1426 47.8639 10.0896 49.284 10.3668C50.4769 10.6005 51.5279 11.1144 52.3193 12.0691C53.0834 12.9895 53.3574 14.0735 53.3687 15.2462C53.3703 15.402 53.2913 15.4098 53.1721 15.4082C52.9045 15.4066 52.6385 15.4051 52.3709 15.4066H52.063Z" fill="white"/>
<path fill-rule="evenodd" clip-rule="evenodd" d="M34.1758 20.0966H33.1635C32.1818 20.0997 31.2001 20.0997 30.2201 20.0919C29.9879 20.0888 29.917 20.1651 29.9041 20.3816C29.8493 21.3145 29.9009 22.224 30.4248 23.0417C30.8503 23.7036 31.4564 24.0945 32.2302 24.2378C33.3521 24.4465 34.3789 24.244 35.28 23.5291C35.8345 23.0884 36.2198 22.5168 36.4632 21.8565C36.5244 21.6883 36.6034 21.626 36.784 21.6353C37.0499 21.6493 37.3159 21.6431 37.5835 21.6369H37.6544C37.8059 21.6322 37.8801 21.6462 37.8188 21.8378C37.2224 23.6755 36.0811 24.9526 34.1258 25.3311C32.9233 25.5616 31.7289 25.5024 30.6102 24.9106C29.6994 24.4278 29.0756 23.6864 28.8241 22.7099C28.1632 20.134 28.6694 17.7838 30.4264 15.767C31.5 14.5335 32.9136 13.9884 34.553 14.0273C35.4654 14.0491 36.31 14.2718 37.0354 14.8372C37.8801 15.4944 38.3008 16.3868 38.4443 17.4225C38.541 18.1233 38.4975 18.8242 38.4539 19.525L38.433 19.863C38.4233 20.0577 38.3476 20.1028 38.159 20.1013C37.1579 20.095 36.1569 20.0966 35.1543 20.0966H34.1758ZM33.6116 18.969L34.4756 18.9675C35.2687 18.9659 36.0618 18.9643 36.8533 18.9752C37.1031 18.9784 37.1757 18.8974 37.1595 18.6638C37.1515 18.5438 37.1563 18.4224 37.1595 18.2993C37.166 18.1763 37.1676 18.0517 37.1612 17.9287C37.108 17.1157 36.85 16.3899 36.223 15.8308C35.201 14.9197 33.3698 14.9369 32.1721 15.7763C31.1405 16.499 30.5392 17.5082 30.1814 18.6887C30.1137 18.9145 30.162 18.9752 30.3974 18.9721C31.184 18.9659 31.9723 18.9675 32.7605 18.9675L33.6116 18.969Z" fill="#0168AA"/>
<path d="M15.3534 16.6719L8.23498 18.3259L10.1548 19.4051L13.5238 18.5859L15.3534 16.6719Z" fill="#0168AA"/>
<path d="M4.87907 19.096L4.05214 19.2907C3.40735 19.4433 2.75935 19.5959 2.11295 19.7454C1.46334 19.898 0.812105 20.046 0.160874 20.1893C-0.0406204 20.2329 -0.0406204 20.3014 0.093172 20.4338C0.206009 20.5475 0.315622 20.6674 0.425235 20.7873L1.28924 21.7265C4.41483 25.1201 7.54041 28.5152 10.6644 31.912C10.7401 31.9945 10.7966 32.0194 10.911 31.9852C11.4765 31.8148 12.0431 31.65 12.6099 31.4852L12.9308 31.3918L14.172 31.0289L17.807 29.9543L23.0265 28.428C24.25 28.076 25.4702 27.7163 26.6888 27.3472H26.6905L27.3626 27.1447L27.303 27.0824C27.2708 27.0466 27.2369 27.0108 27.2014 26.9781L27.0805 26.8706L27.0773 26.869C26.1488 26.0452 25.2187 25.2229 24.2886 24.4021L23.3746 23.6031C22.7669 23.0736 22.1592 22.5441 21.566 22.0021C20.9583 21.4508 20.341 20.9073 19.7171 20.3731L18.7193 19.5227L17.9214 20.7017C17.9892 20.7174 19.1393 21.7809 19.5184 22.1315C19.5318 22.1439 19.5442 22.1554 19.5556 22.1659C19.6049 22.2115 19.6346 22.239 19.6381 22.242C20.5243 23.0259 21.4127 23.8067 22.3015 24.5879L22.8556 25.0749L23.9582 26.0421L24.2967 26.3364L24.4805 26.4937L23.8373 26.6884C23.3747 26.8286 22.9265 26.964 22.4784 27.0949L19.8267 27.8642C19.1251 28.0695 18.4234 28.2771 17.7207 28.485L17.3975 28.5806L13.8109 29.6366C13.0146 29.8671 12.2183 30.0991 11.4252 30.3374C11.2721 30.3841 11.1899 30.3577 11.0867 30.244L7.22124 26.0483L7.21802 26.0452L5.0854 23.7309L4.25686 22.8275C3.78294 22.3074 3.30903 21.7888 2.82866 21.2764C2.66424 21.0988 2.73517 21.0677 2.91087 21.0272C3.09099 20.9867 3.84842 20.8089 4.92384 20.5565L5.04833 20.5272C5.15393 20.5022 5.24589 20.4817 5.33218 20.4625C5.46579 20.4327 5.58603 20.4059 5.72212 20.3699C5.73912 20.3656 5.46831 19.9706 5.22906 19.6216C5.04231 19.3491 4.87549 19.1046 4.87907 19.096Z" fill="#0168AA"/>
</svg>
