<svg width="116" height="32" viewBox="0 0 116 32" fill="none" xmlns="http://www.w3.org/2000/svg">
<path d="M44.4358 8.18863C44.3882 8.28576 44.3035 8.35733 44.1977 8.38288L42.0013 9.01164C41.7314 9.08832 41.5937 9.01164 41.4826 8.75093C41.2233 7.68768 40.1859 6.97202 39.0586 7.07937C36.9946 7.07937 36.2854 8.2602 36.2854 9.85509V13.5152C36.2854 15.1049 36.984 16.2909 39.0586 16.2909C40.7681 16.2909 41.6414 15.5241 41.6414 13.8525V13.3516H39.4079C39.2492 13.3618 39.1116 13.2544 39.101 13.1011C39.101 13.0806 39.101 13.0602 39.101 13.0346V11.0513C39.0798 10.8979 39.1909 10.7599 39.3497 10.7394C39.3656 10.7394 39.3868 10.7394 39.4026 10.7394H44.3723C44.5258 10.719 44.674 10.8212 44.6952 10.9695C44.6952 10.9899 44.6952 11.0104 44.6952 11.0359V14.0621C44.6952 16.9554 42.4935 19.1382 39.0745 19.1382C35.0205 19.1382 33.1257 16.8174 33.1257 13.6481V9.77841C33.1257 6.58863 35.0205 4.28832 39.0745 4.28832C42.3559 4.28832 43.8378 6.09279 44.4305 7.90748M55.5871 11.5062V18.6065C55.5977 18.7599 55.476 18.8928 55.3119 18.903C55.3014 18.903 55.2908 18.903 55.2802 18.903H53.0362C52.8721 18.9183 52.7292 18.8059 52.7133 18.6525C52.7133 18.6372 52.7133 18.627 52.7133 18.6116V17.4513C52.0676 18.5043 50.8821 19.1433 49.6119 19.1228C47.4949 19.1228 46.1241 17.804 46.1241 15.7797C46.1241 13.7554 47.4102 12.6308 50.5434 12.4161C51.2208 12.365 51.9036 12.365 52.581 12.4161V11.6084C52.581 10.5452 52.0094 10.1107 51.0303 10.1107C50.3264 10.0136 49.6595 10.4429 49.4796 11.1126C49.3737 11.3477 49.2996 11.3886 49.0721 11.3273L46.828 10.7752C46.6058 10.7139 46.5846 10.5963 46.6269 10.4429C46.9339 8.88384 48.4634 7.74391 51.1467 7.74391C53.9782 7.74391 55.566 9.04231 55.566 11.4858M52.5704 15.2021V14.2104C51.9724 14.1899 51.3743 14.2104 50.7763 14.2717C49.6384 14.4046 49.0244 14.742 49.0244 15.5906C49.0244 16.3522 49.5431 16.7663 50.4322 16.7663C51.4219 16.7867 52.3005 16.158 52.5704 15.2327M63.6688 7.77458C64.9602 7.75413 66.1034 8.57202 66.458 9.76819C67.2942 8.58736 68.3103 7.77458 69.7393 7.77458C71.7134 7.77458 72.8407 9.27234 72.8407 11.5522V18.6219C72.8301 18.7957 72.6714 18.9286 72.4861 18.9183H70.1363C69.9563 18.9388 69.7922 18.811 69.7711 18.6372V12.0736C69.7711 11.0717 69.3212 10.4992 68.5273 10.4992C67.7335 10.4992 67.0825 11.1739 66.7755 12.1963V18.627C66.7861 18.7803 66.6697 18.9081 66.5109 18.9183C66.5056 18.9183 66.495 18.9183 66.4897 18.9183H63.9546C63.7747 18.9183 63.69 18.8008 63.69 18.6219V12.0685C63.69 11.0666 63.2401 10.4941 62.4462 10.4941C61.6524 10.4941 60.9802 11.2046 60.6944 12.2116V18.6219C60.7103 18.7701 60.5992 18.903 60.4457 18.9183C60.4298 18.9183 60.4086 18.9183 60.3927 18.9183H57.9053C57.7518 18.9337 57.6142 18.8263 57.5983 18.6781C57.5983 18.6628 57.5983 18.6423 57.5983 18.627V8.28065C57.5983 8.12729 57.7253 8.00461 57.8841 8.00461C57.8894 8.00461 57.9 8.00461 57.9053 8.00461H60.2869C60.4404 7.98927 60.578 8.10173 60.5886 8.24998C60.5886 8.2602 60.5886 8.27042 60.5886 8.28065V9.51771C61.2554 8.46978 62.4198 7.81547 63.69 7.76947M85.6486 8.00972C85.7121 8.26531 85.6486 8.45956 85.384 8.51068L83.2246 9.11899C83.0553 9.19566 82.8489 9.12921 82.7695 8.96563C82.7536 8.93496 82.743 8.89918 82.7377 8.8634C82.4255 7.86148 81.9015 7.08959 80.3931 7.08959C78.5408 7.08959 77.948 8.27042 77.948 9.86531V13.5254C77.948 15.1152 78.6201 16.3011 80.3931 16.3011C81.9862 16.3011 82.5948 15.4321 82.8383 14.3484C82.8542 14.1695 83.0182 14.0417 83.2035 14.057C83.2458 14.057 83.2881 14.0723 83.3252 14.0928L85.4898 14.7727C85.7015 14.834 85.8233 15.0436 85.7597 15.2481C85.7597 15.2583 85.7597 15.2634 85.7492 15.2736C85.2305 17.4001 83.6533 19.1228 80.3508 19.1228C76.646 19.1228 74.7725 16.8021 74.7725 13.6327V9.7733C74.7725 6.58352 76.6831 4.2832 80.3508 4.2832C83.5686 4.2832 85.077 5.93432 85.6433 8.01994M96.4771 11.5062V18.6065C96.4877 18.7599 96.3659 18.8928 96.2019 18.903C96.1913 18.903 96.1807 18.903 96.1701 18.903H93.9261C93.762 18.9183 93.6191 18.8059 93.6032 18.6525C93.6032 18.6372 93.6032 18.627 93.6032 18.6116V17.4461C92.9576 18.4992 91.772 19.1382 90.5018 19.1177C88.3848 19.1177 87.0194 17.7989 87.0194 15.7746C87.0194 13.7503 88.3002 12.6257 91.4333 12.411C92.1108 12.3599 92.7935 12.3599 93.4762 12.411V11.6033C93.4762 10.5401 92.9046 10.1056 91.9255 10.1056C91.2216 10.0136 90.5601 10.4429 90.3748 11.1075C90.2743 11.3426 90.1949 11.3835 89.9673 11.3222L87.7286 10.7701C87.501 10.7088 87.4798 10.5912 87.5222 10.4378C87.8291 8.87873 89.3587 7.73879 92.0472 7.73879C94.8787 7.73879 96.4612 9.0372 96.4612 11.4806M93.4709 15.1969V14.2052C92.8729 14.1848 92.2748 14.2052 91.6768 14.2666C90.5389 14.3995 89.9249 14.7369 89.9249 15.5854C89.9249 16.3471 90.4436 16.7612 91.3328 16.7612C92.3225 16.7816 93.201 16.1477 93.4709 15.2276M105.194 8.20397V10.31C105.194 10.5656 105.088 10.6628 104.829 10.6628H104.501C102.876 10.6628 101.918 11.3733 101.59 12.5541V18.6116C101.6 18.765 101.484 18.8928 101.325 18.9081H98.737C98.5782 18.903 98.4618 18.7701 98.4671 18.6219V8.28065C98.4618 8.1324 98.5782 8.00972 98.7264 8.00461C98.7423 8.00461 98.7529 8.00461 98.7687 8.00461H101.092C101.336 8.00461 101.399 8.15796 101.399 8.32154V9.77841C102.008 8.5618 103.304 7.81036 104.702 7.85125C105.109 7.85125 105.22 7.9126 105.22 8.18352M109.195 14.333V14.7471C109.195 15.8921 109.809 16.6947 111.259 16.6947C112.709 16.6947 113.053 16.1937 113.418 15.5394C113.598 15.2429 113.683 15.2072 114.006 15.3401L115.609 16.1273C115.943 16.2858 115.959 16.4442 115.816 16.7356C115.123 18.2334 113.392 19.1177 111.233 19.1177C107.972 19.1177 106.263 17.2519 106.263 14.6909V12.1963C106.263 9.70173 107.867 7.76435 111.211 7.76435C114.556 7.76435 115.938 9.71707 115.938 12.135V13.8679C115.938 14.1644 115.832 14.3688 115.419 14.3688L109.19 14.3382L109.195 14.333ZM109.195 12.0327V12.4059H113.127V12.0327C113.217 11.0768 112.492 10.2334 111.503 10.1414C111.391 10.1311 111.28 10.1311 111.174 10.1414C110.174 10.0545 109.29 10.765 109.2 11.7311C109.19 11.8334 109.19 11.9305 109.2 12.0327" fill="white"/>
<path d="M14.0887 0H0.418108C0.19053 0 0 0.173802 0 0.39361V19.5987C0 26.4486 5.75296 32 12.8449 32H14.0834C21.1753 32 26.923 26.4486 26.923 19.5987V12.4013C26.923 5.55144 21.1753 0 14.0834 0M22.8001 19.8083C22.8001 24.4805 19.2489 28.0077 13.7235 28.0077C7.17664 28.0077 4.12287 24.2556 4.12287 19.1387V12.8869C4.12287 7.73418 7.18194 3.99233 13.7182 3.99233C19.0107 3.99233 21.4135 6.91629 22.3714 9.84025C22.5143 10.1367 22.3767 10.4895 22.0698 10.6275C22.0433 10.6377 22.0115 10.6479 21.9851 10.6581L18.4285 11.6601C18.0051 11.7827 17.7722 11.6601 17.6452 11.246C17.0842 9.49776 15.8987 8.54696 13.7288 8.54696C10.3733 8.54696 9.2566 10.4537 9.2566 13.0351V18.9546C9.2566 21.531 10.3733 23.4428 13.7288 23.4428C16.4915 23.4428 17.9363 22.2006 17.9363 19.5016V18.7297H14.2316C13.9775 18.7604 13.7499 18.5917 13.7129 18.3514C13.7076 18.3105 13.7076 18.2696 13.7129 18.2288V14.9521C13.6917 14.6965 13.8875 14.4716 14.1522 14.4511C14.1786 14.4511 14.2051 14.4511 14.2316 14.4511H22.2762C22.5302 14.4204 22.7578 14.5891 22.7895 14.8345C22.7895 14.8652 22.7895 14.8958 22.7895 14.9265L22.8001 19.8134V19.8083Z" fill="#2F008C"/>
<path d="M36.1692 23.1458C36.1904 23.1816 36.1798 23.2276 36.1427 23.248C36.1374 23.248 36.1322 23.2531 36.1269 23.2531L35.767 23.3605C35.7088 23.3605 35.677 23.3605 35.6558 23.3145C35.55 22.9158 35.1583 22.6448 34.7296 22.6806C34.2269 22.6142 33.7611 22.9566 33.6923 23.4423C33.6817 23.5241 33.6817 23.6007 33.6923 23.6825V25.0065C33.6235 25.4921 33.9781 25.9419 34.4809 26.0084C34.5656 26.0186 34.645 26.0186 34.7296 26.0084C35.3118 26.0084 35.6982 25.7477 35.6982 25.165V24.664H34.8514C34.8037 24.664 34.7773 24.664 34.7773 24.5873V24.3113C34.7773 24.2602 34.7773 24.2346 34.8514 24.2346H36.1639C36.201 24.2295 36.238 24.255 36.2486 24.2959C36.2486 24.3011 36.2486 24.3062 36.2486 24.3113V25.2314C36.2539 25.9624 35.6505 26.5605 34.8937 26.5656C34.8408 26.5656 34.7879 26.5656 34.7349 26.5605C33.9516 26.6474 33.2424 26.1106 33.1525 25.3541C33.1419 25.257 33.1419 25.1598 33.1525 25.0627V23.6621C33.0784 22.9055 33.6553 22.2308 34.4385 22.1643C34.5391 22.1541 34.6397 22.1541 34.7402 22.1643C35.4018 22.1132 36.0051 22.517 36.1851 23.1304M38.9742 25.5177V25.0167C38.7308 25.0014 38.4873 25.0014 38.2386 25.0167C37.7834 25.0678 37.5082 25.2212 37.5082 25.5841C37.487 25.8602 37.6987 26.1004 37.9845 26.1209C38.0269 26.1209 38.0745 26.1209 38.1168 26.1158C38.5032 26.1158 38.8419 25.8755 38.9689 25.5177M39.4876 24.2397V26.4225C39.4876 26.4685 39.4876 26.4889 39.4082 26.4889H39.0483C38.9954 26.4889 38.9689 26.4889 38.9689 26.4225V26.0084C38.7678 26.3407 38.3973 26.54 38.0004 26.54C37.4817 26.5912 37.0213 26.2282 36.9684 25.7273C36.9684 25.6864 36.9631 25.6455 36.9684 25.6046C36.9684 25.0218 37.3759 24.6998 38.1698 24.6435C38.4291 24.6282 38.6884 24.6282 38.9478 24.6435V24.2755C38.9478 23.8563 38.6937 23.6825 38.2862 23.6825C37.9845 23.6365 37.6934 23.8154 37.6193 24.1017C37.6193 24.1579 37.577 24.163 37.5135 24.1528L37.1642 24.0557C37.106 24.0557 37.0901 24.0148 37.106 23.9688C37.2118 23.5292 37.6246 23.2429 38.2968 23.2429C38.9689 23.2429 39.477 23.565 39.477 24.2448M41.8534 23.2378C42.2238 23.2327 42.5467 23.4678 42.6419 23.8103C42.8378 23.4678 43.2029 23.2531 43.6052 23.2378C44.0974 23.2378 44.4943 23.6314 44.489 24.1068C44.489 24.1426 44.489 24.1733 44.4837 24.209V26.4071C44.4837 26.4582 44.452 26.4787 44.3991 26.4787H44.0445C43.9862 26.4787 43.9598 26.4787 43.9598 26.4071V24.3062C43.9598 23.9177 43.7798 23.7081 43.4411 23.7081C43.0971 23.7439 42.8113 23.9841 42.7213 24.3062V26.4173C42.7213 26.4685 42.7213 26.4889 42.6472 26.4889H42.2503C42.1921 26.4889 42.1762 26.4889 42.1762 26.4173V24.3062C42.1762 23.9177 42.0015 23.7081 41.6575 23.7081C41.3188 23.7541 41.0383 23.9892 40.9378 24.3062V26.3918C40.9378 26.4429 40.9378 26.4634 40.8637 26.4634H40.472C40.4138 26.4634 40.3979 26.4634 40.3979 26.3918V23.3605C40.3979 23.3196 40.3979 23.294 40.472 23.294H40.8531C40.9113 23.294 40.9272 23.3196 40.9272 23.3605V23.7796C41.1177 23.4576 41.4617 23.2531 41.8481 23.2378M45.9498 24.5311V25.2672C45.918 25.6812 46.2461 26.0391 46.6748 26.0697C46.7066 26.0697 46.7383 26.0697 46.7701 26.0697C47.2464 26.0697 47.5322 25.7988 47.5322 25.2672V24.526C47.5322 23.9943 47.2464 23.7132 46.7701 23.7132C46.3361 23.703 45.9709 24.0352 45.9603 24.4595C45.9603 24.4851 45.9603 24.5055 45.9603 24.5311M45.9603 22.1439V23.7336C46.1667 23.4116 46.5372 23.2173 46.9342 23.2327C47.5587 23.2225 48.0668 23.703 48.0773 24.3011C48.0773 24.3471 48.0773 24.3982 48.0721 24.4442V25.3285C48.1409 25.9266 47.6963 26.4634 47.0771 26.5298C47.0241 26.5349 46.9712 26.54 46.913 26.5349C46.5213 26.5451 46.1562 26.356 45.9498 26.034V26.402C45.9498 26.448 45.9127 26.4634 45.8757 26.4634H45.4946C45.447 26.4634 45.4205 26.4634 45.4205 26.402V22.1388C45.4205 22.1081 45.4417 22.0774 45.4787 22.0723C45.4787 22.0723 45.484 22.0723 45.4893 22.0723H45.8968C45.9445 22.0723 45.9603 22.0723 45.9603 22.1388M49.4534 22.1388V26.402C49.4534 26.4531 49.4534 26.4736 49.3793 26.4736H48.9877C48.9241 26.4736 48.9083 26.4736 48.9083 26.402V22.1388C48.9083 22.0927 48.9083 22.0672 48.9877 22.0672H49.3793C49.4111 22.0621 49.4481 22.0825 49.4534 22.1132C49.4534 22.1183 49.4534 22.1285 49.4534 22.1336M50.9035 23.3554V26.4071C50.9035 26.4531 50.9035 26.4736 50.8347 26.4736H50.4431C50.3796 26.4736 50.3637 26.4736 50.3637 26.4071V23.3554C50.3637 23.3094 50.3637 23.2889 50.4431 23.2889H50.8347C50.8877 23.2889 50.9035 23.2889 50.9035 23.3554ZM50.9035 22.1541V22.7113C50.9035 22.7675 50.9035 22.7982 50.8136 22.7982H50.4537C50.4113 22.8033 50.3743 22.7777 50.3637 22.7368C50.3637 22.7317 50.3637 22.7215 50.3637 22.7164V22.1592C50.3584 22.1183 50.3849 22.0825 50.4272 22.0723C50.4325 22.0723 50.4431 22.0723 50.4484 22.0723H50.8083C50.8771 22.0723 50.8983 22.103 50.8983 22.1592M52.3696 24.3317V26.4122C52.3696 26.4582 52.3696 26.4787 52.3008 26.4787H51.9303C51.8668 26.4787 51.8509 26.4787 51.8509 26.4122V23.3605C51.8509 23.3196 51.8509 23.294 51.925 23.294H52.3061C52.3643 23.294 52.3802 23.3196 52.3802 23.3605V23.7796C52.6077 23.4423 52.9994 23.2378 53.4175 23.2378C53.9414 23.2225 54.3807 23.6263 54.3913 24.1324C54.3913 24.1835 54.3913 24.2397 54.3807 24.2908V26.4173C54.3807 26.4634 54.3807 26.4838 54.3013 26.4838H53.9097C53.8568 26.4838 53.8303 26.4838 53.8303 26.4173V24.3726C53.8303 23.9637 53.6398 23.7234 53.227 23.7234C52.8459 23.7439 52.5178 23.9892 52.396 24.3368M55.6509 24.388C55.6192 24.7407 55.8891 25.0474 56.2543 25.0781C56.3019 25.0781 56.3442 25.0781 56.3919 25.0781C56.7359 25.1241 57.0534 24.8889 57.1011 24.5515C57.1064 24.5004 57.1064 24.4544 57.1011 24.4033C57.1275 24.0199 56.8312 23.6825 56.4289 23.657C56.0267 23.6314 55.6827 23.9177 55.6562 24.3062C55.6562 24.3368 55.6562 24.3726 55.6562 24.4033M57.3869 26.8007C57.3869 26.5707 57.2546 26.356 56.7676 26.356H56.1643C55.7091 26.356 55.5715 26.5809 55.5715 26.811C55.5715 27.1279 55.8309 27.3426 56.466 27.3426C57.1011 27.3426 57.3922 27.1228 57.3922 26.8058M57.9108 26.7701C57.9108 27.271 57.5086 27.7209 56.4395 27.7209C55.4551 27.7209 55.0635 27.363 55.0635 26.8621C55.0635 26.5503 55.2752 26.2742 55.5821 26.172C55.4445 26.08 55.3598 25.9317 55.3493 25.7681C55.3545 25.5688 55.4869 25.3899 55.6827 25.3183C55.3493 25.1343 55.1481 24.7816 55.164 24.4084C55.1323 23.8308 55.598 23.3349 56.1961 23.3094C56.2596 23.3094 56.3284 23.3094 56.3919 23.3196H57.8314C57.8738 23.3196 57.895 23.3451 57.895 23.3912V23.6774C57.895 23.7336 57.8632 23.7541 57.8209 23.7541H57.2493C57.4768 23.933 57.5986 24.2039 57.5827 24.4902C57.5827 25.0781 57.1752 25.4921 56.3919 25.4921H56.122C55.8944 25.4921 55.7938 25.5943 55.7938 25.7119C55.7938 25.8295 55.8997 25.9317 56.122 25.9317H56.8312C57.6092 25.9317 57.9108 26.3049 57.9108 26.7701ZM62.8382 23.0793C62.854 23.11 62.8382 23.1509 62.8117 23.1662C62.8011 23.1662 62.7958 23.1713 62.7852 23.1713L62.4518 23.294C62.4095 23.3094 62.3618 23.294 62.346 23.248C62.2295 22.8902 61.8749 22.6602 61.4939 22.6857C60.9752 22.6857 60.6841 22.9209 60.6841 23.3042C60.6841 23.6876 60.9011 23.8052 61.7214 24.1221C62.5418 24.4391 62.8911 24.7816 62.8911 25.3745C62.8752 26.0544 62.2877 26.586 61.5891 26.5707C61.5521 26.5707 61.5097 26.5707 61.4727 26.5605C60.8111 26.6269 60.1972 26.2129 60.0278 25.5943C60.0278 25.533 60.0278 25.5074 60.0808 25.4921L60.4301 25.3848C60.4989 25.3848 60.5253 25.3848 60.5412 25.4461C60.6471 25.855 61.044 26.1209 61.478 26.0749C61.9966 26.0749 62.3301 25.8244 62.3301 25.4205C62.3301 25.0167 62.1343 24.8685 61.3827 24.5924C60.483 24.2499 60.1443 23.9074 60.1443 23.3196C60.1707 22.6704 60.737 22.1643 61.4092 22.1899C61.4462 22.1899 61.478 22.1899 61.515 22.2001C62.1237 22.1592 62.6847 22.5221 62.8752 23.0844M63.6955 25.5228V23.3912C63.6955 23.3451 63.722 23.3196 63.7749 23.3196H64.1666C64.2195 23.3196 64.246 23.3451 64.246 23.3912V25.4308C64.246 25.8448 64.4365 26.0851 64.844 26.0851C65.2251 26.0646 65.5585 25.8193 65.6749 25.4665V23.3912C65.6749 23.3451 65.6749 23.3196 65.7543 23.3196H66.1407C66.2042 23.3196 66.2201 23.3451 66.2201 23.3912V26.4378C66.2201 26.4838 66.2201 26.5094 66.146 26.5094H65.7649C65.7332 26.5145 65.6961 26.494 65.6908 26.4634C65.6908 26.4582 65.6908 26.448 65.6908 26.4429V26.0289C65.4632 26.3713 65.0769 26.5758 64.6535 26.5809C64.1242 26.5911 63.6902 26.1873 63.6797 25.6761C63.6797 25.625 63.6797 25.579 63.6902 25.5279M69.2474 25.2979V24.5362C69.3109 24.1579 69.041 23.8001 68.6493 23.7439C68.5964 23.7336 68.5435 23.7336 68.4853 23.7388C68.0566 23.7285 67.6967 24.0557 67.6808 24.4697C67.6808 24.4953 67.6808 24.5158 67.6808 24.5413V25.2927C67.649 25.7119 67.9719 26.0749 68.4059 26.1055C68.4323 26.1055 68.4588 26.1055 68.4853 26.1055C68.9616 26.1055 69.2474 25.8244 69.2474 25.2979ZM67.2098 27.68C67.178 27.68 67.1463 27.6595 67.141 27.6237C67.141 27.6237 67.141 27.6186 67.141 27.6135V23.3963C67.141 23.3503 67.1674 23.3298 67.2151 23.3298H67.5961C67.6279 23.3247 67.6596 23.3451 67.6702 23.3809C67.6702 23.386 67.6702 23.3911 67.6702 23.3963V23.7541C67.8766 23.4372 68.2418 23.248 68.6335 23.2531C69.2527 23.2327 69.7766 23.703 69.7978 24.3062C69.7978 24.3573 69.7978 24.4033 69.7925 24.4544V25.349C69.8613 25.9471 69.4115 26.4889 68.7922 26.5554C68.7446 26.5554 68.7023 26.5605 68.6546 26.5605C68.263 26.5809 67.8925 26.3867 67.6861 26.0595V27.588C67.6861 27.6186 67.6649 27.6493 67.6279 27.6544C67.6279 27.6544 67.6226 27.6544 67.6173 27.6544L67.2098 27.68ZM72.7404 25.303V24.5413C72.8039 24.163 72.534 23.8052 72.1424 23.749C72.0895 23.7388 72.0365 23.7388 71.9783 23.7439C71.5496 23.7336 71.1897 24.0608 71.1739 24.4749C71.1739 24.5004 71.1739 24.5209 71.1739 24.5464V25.2979C71.1421 25.717 71.4649 26.08 71.8989 26.1106C71.9254 26.1106 71.9466 26.1106 71.973 26.1106C72.4493 26.1106 72.7351 25.8295 72.7351 25.303M70.6975 27.6851C70.6658 27.6851 70.634 27.6646 70.6287 27.6289C70.6287 27.6289 70.6287 27.6237 70.6287 27.6186V23.4014C70.6287 23.3554 70.6552 23.3349 70.7028 23.3349H71.0839C71.1156 23.3298 71.1474 23.3503 71.158 23.386C71.158 23.3911 71.158 23.3963 71.158 23.4014V23.7592C71.3644 23.4423 71.7296 23.2531 72.1212 23.2582C72.7404 23.2378 73.2644 23.703 73.2909 24.3062C73.2909 24.3573 73.2909 24.4084 73.2856 24.4595V25.3541C73.3544 25.9522 72.9045 26.494 72.2853 26.5605C72.2376 26.5605 72.1953 26.5656 72.1477 26.5656C71.756 26.5809 71.3856 26.3918 71.1791 26.0646V27.5931C71.1791 27.6237 71.158 27.6544 71.1209 27.6595C71.1209 27.6595 71.1156 27.6595 71.1103 27.6595L70.6975 27.6851ZM74.5928 24.5413V25.349C74.5928 25.7681 74.9474 26.1106 75.3814 26.1106C75.8154 26.1106 76.17 25.7681 76.17 25.349V24.5413C76.17 24.1221 75.8154 23.7796 75.3814 23.7796C74.9474 23.7796 74.5928 24.1221 74.5928 24.5413ZM76.7151 24.5158V25.349C76.7151 26.0595 76.1171 26.6372 75.3814 26.632C74.6457 26.632 74.053 26.0544 74.053 25.349V24.5311C74.053 23.8205 74.651 23.2429 75.3867 23.248C76.1223 23.248 76.7151 23.8257 76.7151 24.5311M79.192 23.3554V23.7081C79.192 23.7643 79.192 23.7848 79.1073 23.7848H79.0385C78.6151 23.7694 78.2288 24.0301 78.0965 24.4186V26.448C78.0965 26.494 78.0647 26.5094 78.0277 26.5094H77.6201C77.5884 26.5094 77.5619 26.4889 77.5566 26.4582C77.5566 26.4582 77.5566 26.4531 77.5566 26.448V23.4116C77.5566 23.3605 77.5566 23.3451 77.6307 23.3451H78.0012C78.0541 23.3451 78.0806 23.3707 78.0806 23.4167V23.9177C78.2764 23.5394 78.6786 23.3094 79.1179 23.3247C79.1973 23.3247 79.2185 23.3247 79.2185 23.4014M80.7692 22.5988V23.3605H81.4731C81.526 23.3605 81.5472 23.386 81.5472 23.4423V23.7285C81.5472 23.7848 81.5472 23.8052 81.4731 23.8052H80.7692V25.6455C80.7692 25.9317 80.928 26.0595 81.2296 26.0595H81.4678C81.5207 26.0595 81.5472 26.0595 81.5472 26.1311V26.4531C81.5472 26.5094 81.5472 26.5298 81.4678 26.5298H81.1502C80.711 26.5912 80.3087 26.2998 80.2452 25.8755C80.2399 25.8244 80.2346 25.7733 80.2399 25.7221V23.8103H79.7901C79.7477 23.8103 79.7213 23.8103 79.7213 23.7336V23.4474C79.7213 23.3912 79.7477 23.3656 79.7901 23.3656H80.2452V22.5988C80.2452 22.5579 80.2452 22.5324 80.3246 22.5324H80.6951C80.7586 22.5324 80.7745 22.5324 80.7745 22.5988M86.6915 23.1407C86.6915 23.202 86.6915 23.248 86.6015 23.2685L86.0246 23.4729C85.9717 23.4985 85.9082 23.4781 85.8764 23.4269C85.8764 23.4218 85.8712 23.4116 85.8659 23.4065C85.7653 23.1458 85.4954 22.9822 85.2096 23.0129C84.855 23.0129 84.6221 23.1765 84.6221 23.4269C84.6221 23.6774 84.8021 23.7796 85.6065 24.0506C86.411 24.3215 86.7338 24.6896 86.7338 25.303C86.7338 26.0391 86.0829 26.5963 85.1408 26.5963C84.421 26.6781 83.7489 26.2435 83.5583 25.5688C83.5372 25.5177 83.5689 25.4614 83.6218 25.441L84.2464 25.2416C84.331 25.2161 84.3681 25.2416 84.3893 25.3234C84.4581 25.6506 84.7862 25.8704 85.1302 25.8244C85.5536 25.8244 85.7759 25.6506 85.7759 25.3899C85.7759 25.1292 85.6171 25.0423 84.9661 24.8225C84.0294 24.5004 83.6748 24.1375 83.6748 23.4729C83.733 22.7368 84.3945 22.1899 85.1514 22.241C85.162 22.241 85.1778 22.241 85.1884 22.241C85.85 22.1796 86.4692 22.5579 86.6862 23.1662M88.5439 22.6448V23.3656H89.1631C89.2107 23.3605 89.2531 23.3912 89.2636 23.4372C89.2636 23.4423 89.2636 23.4525 89.2636 23.4576V23.9841C89.2636 24.0301 89.2319 24.071 89.1843 24.0761C89.179 24.0761 89.1737 24.0761 89.1684 24.0761H88.5492V25.4972C88.5492 25.6812 88.655 25.7886 88.8985 25.7886H89.1684C89.2319 25.7886 89.2689 25.8193 89.2689 25.8755V26.4685C89.2689 26.5298 89.2319 26.5554 89.1684 26.5554H88.7503C88.004 26.5554 87.6547 26.1771 87.6547 25.6148V24.0659H87.2737C87.226 24.071 87.1837 24.0404 87.1731 23.9892C87.1731 23.9841 87.1731 23.979 87.1731 23.9739V23.4474C87.1678 23.4014 87.1996 23.3605 87.2472 23.3503C87.2525 23.3503 87.2631 23.3503 87.2684 23.3503H87.6653V22.6448C87.66 22.5988 87.6918 22.563 87.7394 22.5528C87.7447 22.5528 87.75 22.5528 87.7553 22.5528H88.4592C88.5174 22.5528 88.5439 22.5886 88.5439 22.6448ZM91.6559 25.4512V25.1496C91.4812 25.1394 91.3119 25.1394 91.1372 25.1496C90.8038 25.1905 90.6185 25.2876 90.6185 25.5381C90.6185 25.7886 90.772 25.8857 91.0313 25.8857C91.3224 25.8857 91.5818 25.7017 91.6612 25.4308M92.545 24.3317V26.4276C92.545 26.4736 92.508 26.5145 92.455 26.5145H91.7882C91.7405 26.5145 91.6982 26.4838 91.6929 26.4327V26.0851C91.5024 26.402 91.1531 26.5912 90.7773 26.586C90.2481 26.6269 89.7823 26.2487 89.74 25.7375C89.74 25.6864 89.74 25.6352 89.74 25.5892C89.74 25.0065 90.121 24.6589 91.0472 24.5873C91.2483 24.572 91.4495 24.572 91.6453 24.5873V24.3624C91.677 24.1528 91.5236 23.9586 91.3066 23.9279C91.2695 23.9228 91.2272 23.9228 91.1901 23.9279C90.9837 23.9023 90.7879 24.025 90.7297 24.2244C90.6979 24.2959 90.6768 24.3113 90.6132 24.2908L89.9517 24.1324C89.8829 24.1324 89.8776 24.0761 89.8935 24.0301C89.9834 23.5701 90.4121 23.2378 91.2219 23.2378C92.0316 23.2378 92.5291 23.6161 92.5291 24.3368M95.223 23.3707V23.9943C95.223 24.071 95.1913 24.0966 95.1172 24.0966H95.0166C94.625 24.0506 94.2598 24.2857 94.1592 24.6538V26.4378C94.1645 26.4787 94.1328 26.5145 94.0904 26.5247C94.0904 26.5247 94.0851 26.5247 94.0798 26.5247H93.323C93.2807 26.5247 93.2436 26.494 93.2436 26.448C93.2436 26.448 93.2436 26.4429 93.2436 26.4378V23.3963C93.2436 23.3554 93.2701 23.3196 93.3177 23.3145C93.323 23.3145 93.3283 23.3145 93.3336 23.3145H94.0216C94.0693 23.3145 94.1063 23.3451 94.1116 23.3912C94.1116 23.3963 94.1116 23.4014 94.1116 23.4065V23.8717C94.2915 23.5138 94.6673 23.294 95.0801 23.3094C95.1966 23.3094 95.223 23.3094 95.223 23.4116M96.9907 22.6602V23.3809H97.6099C97.6576 23.3809 97.6999 23.4116 97.7052 23.4576C97.7052 23.4627 97.7052 23.4678 97.7052 23.4729V23.9995C97.7105 24.0455 97.6787 24.0812 97.6364 24.0915C97.6311 24.0915 97.6205 24.0915 97.6152 24.0915H96.996V25.5126C96.996 25.6966 97.1019 25.8039 97.34 25.8039H97.6152C97.6629 25.7988 97.6999 25.8295 97.7105 25.8755C97.7105 25.8806 97.7105 25.8857 97.7105 25.8908V26.4838C97.7105 26.5451 97.6734 26.5707 97.6152 26.5707H97.1971C96.4509 26.5707 96.1069 26.1924 96.1069 25.6301V24.0812H95.7205C95.6729 24.0864 95.6358 24.0557 95.6252 24.0148C95.6252 24.0097 95.6252 23.9995 95.6252 23.9943V23.4678C95.62 23.4218 95.6517 23.3809 95.7046 23.3707C95.7099 23.3707 95.7152 23.3707 95.7205 23.3707H96.1174V22.6653C96.1122 22.6193 96.1439 22.5835 96.1863 22.5733C96.1915 22.5733 96.2021 22.5733 96.2074 22.5733H96.9113C96.959 22.5733 96.996 22.609 96.996 22.655C96.996 22.655 96.996 22.6602 96.996 22.6653M100.923 24.0557C100.923 24.1068 100.923 24.1528 100.849 24.1681L100.299 24.3573C100.235 24.3573 100.203 24.3573 100.182 24.2908C100.097 24.0659 99.8593 23.9228 99.6105 23.9483C99.3247 23.9483 99.1606 24.0557 99.1606 24.2142C99.1606 24.3726 99.2771 24.434 99.9175 24.5975C100.658 24.7867 100.955 25.0985 100.955 25.5995C100.955 26.218 100.436 26.6014 99.6105 26.6014C98.7849 26.6014 98.3509 26.3151 98.1815 25.8295C98.1815 25.7579 98.1815 25.7273 98.2715 25.6915L98.7584 25.4614C98.8325 25.4257 98.8696 25.4614 98.9066 25.533C99.0177 25.7937 99.2877 25.9522 99.5788 25.9266C99.9122 25.9266 100.097 25.8193 100.097 25.6455C100.097 25.4717 99.9122 25.3848 99.3194 25.2263C98.5891 25.0423 98.2821 24.7253 98.2821 24.2244C98.2821 23.6161 98.8008 23.2225 99.5735 23.2225C100.15 23.1662 100.701 23.4832 100.918 24.0046M106.496 22.3841V26.4531C106.496 26.5042 106.496 26.54 106.401 26.54H105.665C105.618 26.54 105.575 26.5094 105.57 26.4582V24.848H104.056V26.4634C104.056 26.5094 104.024 26.5451 103.977 26.5503C103.972 26.5503 103.966 26.5503 103.961 26.5503H103.204C103.156 26.5503 103.114 26.5196 103.109 26.4685V22.3841C103.109 22.3381 103.146 22.2972 103.199 22.2972C103.199 22.2972 103.204 22.2972 103.209 22.2972H103.961C104.009 22.2921 104.046 22.3228 104.056 22.3688C104.056 22.3739 104.056 22.379 104.056 22.3841V23.9995H105.57V22.3841C105.57 22.3381 105.607 22.2972 105.66 22.2972H106.417C106.485 22.2972 106.512 22.333 106.512 22.3841M108.094 24.5362V24.6435H109.253V24.5362C109.28 24.2295 109.042 23.9586 108.719 23.933C108.401 23.9074 108.121 24.1375 108.094 24.4493C108.094 24.48 108.094 24.5106 108.094 24.5362ZM108.094 25.2161V25.3388C108.047 25.6097 108.237 25.8704 108.523 25.9164C108.581 25.9266 108.645 25.9266 108.703 25.9164C108.968 25.9573 109.232 25.8193 109.338 25.579C109.396 25.487 109.423 25.4768 109.513 25.5177L109.989 25.7528C110.09 25.7988 110.095 25.8448 110.053 25.9317C109.788 26.4071 109.253 26.6781 108.698 26.632C107.983 26.7241 107.332 26.2384 107.237 25.5535C107.226 25.4819 107.221 25.4052 107.226 25.3336V24.5822C107.195 23.8921 107.745 23.3043 108.46 23.2736C108.534 23.2736 108.613 23.2736 108.687 23.2838C109.386 23.2173 110.01 23.7081 110.079 24.3828C110.084 24.4442 110.084 24.5055 110.079 24.572V25.0729C110.079 25.1598 110.047 25.2161 109.92 25.2161H108.1H108.094ZM112.694 23.3912V24.0148C112.694 24.0915 112.667 24.117 112.582 24.117H112.487C112.096 24.071 111.73 24.3062 111.63 24.6742V26.4582C111.63 26.5042 111.598 26.54 111.55 26.5451H110.788C110.746 26.5451 110.709 26.5145 110.709 26.4685C110.709 26.4685 110.709 26.4634 110.709 26.4582V23.4167C110.709 23.3758 110.735 23.34 110.783 23.3349C110.788 23.3349 110.794 23.3349 110.799 23.3349H111.487C111.561 23.3349 111.577 23.3809 111.577 23.4269V23.8921C111.757 23.5343 112.133 23.3145 112.545 23.3298C112.667 23.3298 112.688 23.3298 112.688 23.432M114.001 24.5515V24.6589H115.16V24.5515C115.186 24.2448 114.948 23.9739 114.625 23.9483C114.308 23.9228 114.027 24.1528 114.001 24.4646C114.001 24.4953 114.001 24.526 114.001 24.5515ZM114.001 25.2314V25.3541C113.953 25.625 114.144 25.8857 114.43 25.9317C114.488 25.9419 114.551 25.9419 114.609 25.9317C114.879 25.9726 115.139 25.8346 115.25 25.5943C115.303 25.5023 115.329 25.4921 115.419 25.533L115.896 25.7681C115.996 25.8142 116.001 25.8602 115.959 25.9471C115.694 26.4225 115.16 26.6934 114.604 26.6474C113.89 26.7343 113.239 26.2435 113.154 25.5535C113.143 25.4819 113.143 25.4154 113.143 25.3439V24.5924C113.112 23.9023 113.662 23.3145 114.377 23.2838C114.451 23.2838 114.53 23.2838 114.604 23.294C115.303 23.2276 115.927 23.7183 115.996 24.3931C116.001 24.4544 116.001 24.5158 115.996 24.5822V25.0832C115.996 25.1701 115.964 25.2263 115.837 25.2263H114.006L114.001 25.2314Z" fill="white"/>
</svg>
