<svg width="108" height="32" viewBox="0 0 108 32" fill="none" xmlns="http://www.w3.org/2000/svg">
<path d="M54.3302 15.6284C54.3143 18.9896 52.1366 20.9739 48.91 20.9739C45.167 20.9739 42.8242 18.3352 42.8242 15.4137C42.8242 12.4923 45.1989 9.85352 48.7449 9.85352C50.7256 9.85352 52.2377 10.5603 53.6753 11.9059L52.8447 12.665C51.6201 11.4975 50.1612 10.8797 48.7609 10.8797C46.1679 10.8797 43.937 12.8273 43.937 15.3771C43.937 17.9268 46.0242 19.9792 48.926 19.9792C50.9759 19.9792 52.7968 18.775 53.1003 16.6336H49.6607V15.6074H54.3249V15.6231L54.3302 15.6284ZM56.9019 16.7959C56.8859 18.5289 58.2703 19.9478 60.0327 19.9844C61.8163 20.0368 63.3072 18.6546 63.3444 16.9059C63.3977 15.1519 61.992 13.686 60.2137 13.6493C58.43 13.597 56.9392 14.9792 56.9019 16.7279V16.8012M63.1474 12.8902H64.1537V20.7331H63.1474V19.3875C62.3754 20.3614 61.1827 20.9268 59.9262 20.9268C57.6207 20.8535 55.7838 18.9635 55.8583 16.6964C55.9329 14.5027 57.7325 12.7488 59.9634 12.6964C61.2413 12.6807 62.4286 13.2985 63.1474 14.3404V12.8902ZM72.9017 20.7122H71.8954V16.6964C71.8954 16.0944 71.8422 15.597 71.8209 15.2252C71.7676 14.3038 70.9583 13.597 70.0212 13.6336C69.2811 13.6336 68.5996 13.9687 68.147 14.5551C67.572 15.2828 67.4815 16.1991 67.4815 17.3875V20.7174H66.4539V12.8745H67.4815V14.22C68.1843 13.2095 69.0682 12.6807 70.2182 12.6807C71.4428 12.6807 72.3054 13.2985 72.7367 14.576C73.4395 13.3195 74.499 12.6807 75.6704 12.6807C77.3263 12.6807 78.3912 13.8483 78.3912 16.0786V20.7174H77.3636V16.4347C77.3636 15.8483 77.289 15.4085 77.273 15.1258C77.2198 14.4347 76.5542 13.6546 75.4734 13.6546C74.4458 13.6703 73.546 14.309 73.2052 15.2462C72.9709 15.9006 72.8804 16.6074 72.9177 17.2985L72.9017 20.7174V20.7122ZM87.8952 16.7802C87.9112 15.0472 86.5109 13.6284 84.7432 13.5917C83.0127 13.5551 81.5911 14.9216 81.5752 16.6179V16.7593C81.5752 18.4766 82.9808 19.8745 84.7272 19.8745C86.4736 19.8745 87.8792 18.4923 87.8952 16.775M81.6497 20.7226H80.6221V9.85875H81.6497V14.2305C82.4058 13.2567 83.5931 12.6703 84.855 12.6912C87.1764 12.7645 88.9974 14.6546 88.9228 16.9373C88.8483 19.131 87.0486 20.9006 84.8177 20.9373C83.5399 20.9373 82.3525 20.3195 81.6497 19.2933V20.7279V20.7226ZM91.4785 16.7907C91.4626 18.5237 92.8469 19.9425 94.6093 19.9792C96.3929 20.0315 97.8838 18.6493 97.921 16.9006C97.9743 15.1467 96.5686 13.6807 94.7903 13.6441C93.0066 13.5917 91.5158 14.9739 91.4785 16.7226V16.7959M97.724 12.8849H98.7304V20.7279H97.724V19.3823C96.952 20.3561 95.7593 20.9216 94.5028 20.9216C92.1973 20.8483 90.3604 18.9582 90.4349 16.6755C90.5095 14.4818 92.3091 12.7279 94.5401 12.6755C95.8179 12.6598 97.0052 13.2776 97.724 14.3195V12.8849ZM102.063 14.2828C102.894 13.22 103.879 12.6703 105.05 12.6703C106.797 12.6703 108 13.8588 108 16.3142V20.7226H106.973V16.4556C106.973 14.6127 106.376 13.5865 104.832 13.5865C104.001 13.5865 103.213 13.9739 102.724 14.6493C102.127 15.4085 102.042 16.1886 102.042 17.4294V20.7226H101.015V12.8797H102.042L102.058 14.2776L102.063 14.2828Z" fill="white"/>
<path d="M25.6689 25.1675C25.4506 25.3822 25.2536 25.555 25.0566 25.733L24.8596 25.8901C24.6999 26.0157 24.5348 26.1571 24.3751 26.2775L24.194 26.4188C23.9757 26.5759 23.7628 26.7173 23.5445 26.8639L23.3634 26.9686C23.1824 27.0733 23.0227 27.1832 22.8257 27.288L22.6074 27.4136C22.3891 27.5183 22.1761 27.644 21.9578 27.733L21.9046 27.7696C21.6543 27.8743 21.42 27.9843 21.1645 28.089L20.9834 28.1623C20.7864 28.2356 20.5681 28.3037 20.3552 28.377L20.1954 28.4293C19.9452 28.5026 19.6736 28.5707 19.4021 28.644C19.3861 28.644 19.3648 28.6597 19.3275 28.6597C19.0933 28.712 18.843 28.7644 18.6087 28.801L18.4277 28.8377L17.6717 28.9424H17.6184L16.8091 28.9948H15.7815C15.51 28.9948 15.2757 28.9791 15.0095 28.9424L14.8284 28.9267C14.5249 28.8901 14.2321 28.8534 13.9286 28.801L13.5133 28.712C13.279 28.6597 13.0288 28.6073 12.7945 28.534L12.523 28.4607L12.3792 28.4084L15.9253 24.9372C20.9302 25.1309 25.1578 21.2932 25.3388 16.3717C25.4133 14.5864 24.9448 12.8325 23.9704 11.3089L21.7395 13.5026V18.8639H17.9964V11.466L24.029 5.50262C24.588 5.91099 25.1098 6.33508 25.6157 6.81152C30.8176 11.8743 30.8176 20.089 25.6689 25.1675ZM6.89509 25.2042C1.7464 20.1257 1.7464 11.911 6.89509 6.84817L6.91106 6.83246C7.10806 6.63874 7.30507 6.46073 7.50739 6.28272L7.7044 6.12565C7.86413 6 8.02918 5.85864 8.17294 5.73822L8.35397 5.59686C8.57227 5.43979 8.78525 5.29843 9.00355 5.15183L9.18458 5.04712C9.36561 4.94241 9.52534 4.83246 9.72234 4.72775L9.94064 4.60209C10.1589 4.49738 10.3719 4.37173 10.5902 4.28272L10.6435 4.24607C10.8937 4.14136 11.128 4.03141 11.3836 3.9267L11.5646 3.8534C11.7616 3.7801 11.9799 3.71204 12.1929 3.63874L12.3526 3.58639C12.6028 3.51309 12.8744 3.44503 13.1459 3.37173H13.2205C13.4547 3.31937 13.705 3.26702 13.9393 3.23037L14.1203 3.19372L14.8764 3.089H14.9296L15.7389 3.03665H16.7665C17.0381 3.03665 17.2723 3.05236 17.5385 3.089L17.7196 3.10471C17.9166 3.12042 18.0976 3.15707 18.2946 3.17801L18.6194 3.23037C18.7632 3.24607 18.8909 3.28272 19.0347 3.31937C19.269 3.37173 19.5192 3.42408 19.7535 3.49738L20.025 3.57068L20.1688 3.62304L16.6228 7.09424C11.6178 6.90052 7.39026 10.7225 7.18793 15.6597C7.09741 17.466 7.56596 19.2356 8.54033 20.7382L10.7712 18.5445V13.1832H14.5143V20.5812L8.48176 26.5445C7.9227 26.1361 7.38493 25.6963 6.89509 25.199M16.2713 0C7.27312 0 0 7.16754 0 16C0 24.8325 7.28909 32 16.2713 32C25.2536 32 32.5427 24.8325 32.5427 16C32.5587 7.16754 25.2696 0 16.2713 0Z" fill="#D85A43"/>
</svg>
