<svg width="129" height="17" viewBox="0 0 129 17" fill="none" xmlns="http://www.w3.org/2000/svg">
<path d="M6.58852 0C2.55391 0 0 2.85231 0 8.50708C0 13.6412 2.31861 16.3828 5.88261 16.3828C7.66748 16.3828 9.18835 15.7514 9.96313 14.1895L10.1066 16.1114H12.1957V8.30769H6.35896V10.2738H9.80243V10.7502C9.80243 13.5305 7.97739 14.3225 6.40487 14.3225C4.20104 14.3225 2.62852 12.5612 2.62852 8.352C2.62852 3.89908 4.36174 2.06585 6.54261 2.06585C8.08643 2.06585 9.23426 2.83569 9.68191 4.824L9.77374 5.25046L12.167 4.752L12.0751 4.27569C11.4897 1.31262 9.37774 0 6.58852 0Z" fill="white"/>
<path fill-rule="evenodd" clip-rule="evenodd" d="M17.952 16.3774C19.5015 16.3552 20.46 15.7681 21.1888 15.0205V15.0149C21.2118 15.3528 21.2634 15.6685 21.3323 15.9841L21.3553 16.1005H23.7944L23.7485 15.8955C23.628 15.3971 23.605 14.6494 23.605 14.0845V8.13615C23.605 5.80999 21.912 4.51953 19.2662 4.51953C16.6205 4.51953 15.1914 5.92076 14.6749 6.93984L14.5544 7.16692L16.4081 8.11953L16.477 7.98107C16.896 7.16692 17.8601 6.44138 19.0539 6.44138C20.3452 6.44138 21.1659 7.07276 21.1659 8.34107V8.75092L17.533 9.74784C16.0294 10.1577 14.3191 11.1325 14.3191 13.1208C14.3191 14.954 15.7481 16.3774 17.952 16.3774ZM21.1659 13.3201C20.6264 13.9792 19.668 14.5885 18.589 14.5885H18.5833C17.51 14.5885 16.8271 13.9349 16.8271 12.9601C16.8271 11.9854 17.6765 11.5091 18.6349 11.2155L21.1659 10.4678V13.3201Z" fill="white"/>
<path d="M37.7576 6.56281C36.7992 6.56281 35.7891 7.1942 35.2267 7.73697V16.1056H32.7875V8.30189C32.7875 7.14989 32.1792 6.55727 31.0084 6.55727C30.05 6.55727 29.0399 7.18866 28.4775 7.73143V16.1H26.0383V4.79604H28.3569V6.0422C29.2465 5.13943 30.5149 4.52466 31.8234 4.52466C33.4648 4.52466 34.4462 5.2502 34.9168 6.24158C35.8063 5.2225 37.1665 4.52466 38.5726 4.52466C40.9888 4.52466 41.9702 6.0865 41.9702 7.78127V16.1056H39.531V8.30189C39.531 7.14989 38.9227 6.55727 37.7519 6.55727L37.7576 6.56281Z" fill="white"/>
<path fill-rule="evenodd" clip-rule="evenodd" d="M46.7337 16.1055L46.969 15.0642C47.629 15.9005 48.7309 16.3768 49.9246 16.3768C52.5933 16.3768 54.493 14.1393 54.493 10.2901C54.493 6.44084 52.6909 4.519 50.0165 4.519C48.8916 4.519 47.8184 4.951 47.1125 5.72084V0.270996H44.6733V16.1055H46.7337ZM52.0079 10.3621C52.0079 13.2531 50.8372 14.4771 49.454 14.4771C48.5186 14.4771 47.7208 14.0008 47.1125 13.3916V7.48761C47.6979 6.90053 48.4726 6.44638 49.4081 6.44638C50.7913 6.44638 52.0079 7.471 52.0079 10.3621Z" fill="white"/>
<path d="M56.5076 0.270996H58.9467V16.1055H56.5076V0.270996Z" fill="white"/>
<path fill-rule="evenodd" clip-rule="evenodd" d="M66.1894 4.52466C62.9582 4.52466 61.1045 7.03912 61.1045 10.6114H61.116C61.116 14.3665 63.2681 16.3825 66.2238 16.3825C68.3071 16.3825 69.8567 15.5462 70.7233 13.8736L70.8381 13.6465L68.9155 12.8545L68.772 13.1037C68.1866 14.1173 67.32 14.5271 66.2869 14.5271C64.6914 14.5271 63.4977 13.3031 63.4977 11.1099V10.9714H70.8553V9.90804C70.8553 5.83727 68.4621 4.52466 66.1894 4.52466ZM68.5596 9.25451V9.40958H63.5207C63.733 7.32712 64.9555 6.42435 66.1951 6.42435C67.4348 6.42435 68.5596 7.1942 68.5596 9.25451Z" fill="white"/>
<path fill-rule="evenodd" clip-rule="evenodd" d="M77.3348 0.271484H80.8644L85.5074 16.1059H82.9075L81.7597 11.9466H76.3248L75.1769 16.1059H72.7148L77.3348 0.271484ZM81.1915 9.99702L79.0336 2.21548L76.8757 9.99702H81.1915Z" fill="#F0681C"/>
<path d="M87.3323 4.79688L89.2549 12.872L91.3899 4.79688H93.6855L95.7746 12.872L97.7661 4.79688H99.9928L96.9683 16.1064H94.5521L92.4401 8.05349L90.3052 16.1064H87.912L84.8875 4.79688H87.3323Z" fill="#F0681C"/>
<path fill-rule="evenodd" clip-rule="evenodd" d="M103.941 16.3779C105.491 16.3557 106.449 15.7686 107.178 15.0209V15.0154C107.207 15.3533 107.253 15.6689 107.322 15.9846L107.345 16.1009H109.784L109.738 15.896C109.617 15.3976 109.595 14.6499 109.595 14.0849V8.13663C109.595 5.81048 107.901 4.52002 105.256 4.52002C102.61 4.52002 101.181 5.92125 100.664 6.94033L100.544 7.1674L102.398 8.12002L102.467 7.98156C102.885 7.1674 103.85 6.44187 105.043 6.44187C106.335 6.44187 107.155 7.07325 107.155 8.34156V8.7514L103.523 9.74833C102.019 10.1582 100.309 11.1329 100.309 13.1213C100.309 14.9545 101.738 16.3779 103.941 16.3779ZM107.155 13.3206C106.616 13.9797 105.657 14.5889 104.579 14.5889H104.573C103.5 14.5889 102.817 13.9354 102.817 12.9606C102.817 11.9859 103.66 11.5096 104.624 11.216L107.155 10.4683V13.3206Z" fill="#F0681C"/>
<path d="M111.965 4.79685H114.237V6.92362C115.787 5.179 117.17 4.66392 118.341 4.63623V6.82946C116.699 6.82946 115.408 7.71008 114.404 8.59623V16.1064H111.965V4.79685Z" fill="#F0681C"/>
<path fill-rule="evenodd" clip-rule="evenodd" d="M123.678 4.52515C120.447 4.52515 118.594 7.03961 118.594 10.6119H118.605C118.605 14.367 120.757 16.383 123.713 16.383C125.796 16.383 127.346 15.5467 128.212 13.8741L128.327 13.647L126.404 12.855L126.261 13.1042C125.676 14.1178 124.809 14.5276 123.776 14.5276C122.18 14.5276 120.987 13.3036 120.987 11.1104V10.9719H128.344V9.90853C128.344 5.83776 125.951 4.52515 123.678 4.52515ZM126.049 9.25499V9.41561L126.043 9.41007H121.004C121.216 7.32761 122.433 6.42484 123.678 6.42484C124.924 6.42484 126.049 7.19469 126.049 9.25499Z" fill="#F0681C"/>
</svg>
