<svg width="78" height="28" viewBox="0 0 78 28" fill="none" xmlns="http://www.w3.org/2000/svg">
<path d="M9.71466 11.6598C9.70313 12.047 9.62236 13.1201 8.67628 13.8779C7.64943 14.702 5.90725 14.8846 4.64965 14.8846C4.17084 14.8846 3.67473 14.8735 3.19592 14.8237C2.20945 14.7131 1.07877 14.4752 0.467272 13.5902C0.0922995 13.0316 0.0519191 12.4453 0.0403815 11.7705H3.27668C3.27668 11.87 3.2363 12.3181 3.54781 12.578C3.71511 12.7274 4.11893 12.8767 4.66696 12.8767C4.75926 12.8767 5.4746 12.8656 5.88995 12.567C6.36876 12.2185 6.31684 11.5437 6.31684 11.422C6.31684 11.0625 6.32838 10.714 6.32838 10.36C6.17262 10.5978 6.16108 10.62 6.01686 10.7195C5.48613 11.1288 4.66696 11.2284 4.01509 11.2284C3.069 11.2284 2.26137 11.0514 1.49412 10.4928C0.842246 10.006 0 8.99932 0 7.09104C0 6.68173 0.0403814 5.03342 1.14222 3.91058C1.92101 3.11409 3.11515 2.8154 4.22276 2.82646C4.48236 2.82646 5.48613 2.82646 6.22454 3.38512C6.3803 3.49574 6.4726 3.58424 6.69181 3.87186L6.68027 3.0643H9.76082L9.74928 11.162C9.74928 11.339 9.74928 11.4884 9.72044 11.6488M5.53805 5.33211C5.43421 5.28233 5.215 5.18277 4.90348 5.19383C4.68427 5.19383 4.44775 5.24361 4.26891 5.33211C3.76126 5.56995 3.42667 6.10648 3.42667 7.1906C3.42667 7.9152 3.59396 8.36323 3.81895 8.60107C3.93432 8.73935 4.07854 8.81126 4.24584 8.88869C4.3093 8.92741 4.55735 8.98826 4.81695 8.98826C4.96117 8.98826 5.19192 8.98825 5.4919 8.84997C6.20723 8.55129 6.28223 7.70501 6.28223 7.05785C6.28223 6.44942 6.21877 5.66398 5.54382 5.33764M16.5911 11.6654V11.0072C16.4469 11.1067 16.2796 11.245 15.9277 11.4054C15.5527 11.5935 14.7335 11.8645 13.6144 11.8645C13.3952 11.8645 12.7837 11.8645 12.1837 11.6543C11.0242 11.2173 10.4012 10.2604 10.4012 9.09888C10.4012 8.63979 10.505 7.60545 11.6357 6.88086C12.3741 6.40517 13.3259 6.28348 14.197 6.17286C14.7047 6.11201 15.2354 6.03458 15.7315 5.94608C15.9507 5.8963 16.1988 5.84651 16.418 5.78567C16.418 5.74695 16.418 5.5257 16.3661 5.38742C16.2623 5.03895 16.0027 4.79005 15.2066 4.79005C14.947 4.79005 14.7797 4.82877 14.6874 4.83983C14.1278 4.97811 14.0759 5.41508 14.024 5.59761L10.6838 5.67505C10.7242 5.48698 10.7761 5.32658 10.7992 5.16617C10.8915 4.82877 11.0703 4.24246 11.7857 3.70593C12.501 3.18046 13.5798 2.80987 15.5181 2.82093C16.9199 2.82093 18.8178 3.04771 19.5101 4.43052C19.7062 4.8177 19.7697 5.15511 19.7697 5.95161L19.7582 10.6255C19.7582 11.2505 19.8505 11.3833 20.0697 11.6875L16.5853 11.6764L16.5911 11.6654ZM15.0566 8.0756C14.6816 8.1641 14.1336 8.27473 13.8624 8.60107C13.8221 8.65085 13.7067 8.80019 13.7067 8.99932C13.7067 9.25929 13.9259 9.65753 14.5893 9.65753C14.9008 9.65753 15.172 9.55797 15.4604 9.41969C16.4584 8.91082 16.4065 8.05901 16.4065 7.66076C15.9507 7.82116 15.5123 7.94838 15.0566 8.07007M36.58 11.6986L36.5915 6.27795C36.5915 5.74142 36.5915 5.28233 36.4242 4.78452C35.9973 3.5234 34.8782 3.16387 34.4225 3.04218C33.8917 2.89283 33.4764 2.9039 33.2514 2.9039C31.7977 2.87624 31.0535 3.42936 30.6381 3.83868C30.5227 3.9493 30.3266 4.13736 30.1708 4.48583C29.9747 4.14843 29.8593 3.9493 29.7266 3.82761C28.8671 2.89283 27.373 2.89284 27.0615 2.89284C25.8385 2.89284 25.0885 3.34087 24.7193 3.66721C24.5751 3.80549 24.4482 3.96589 24.2405 4.31436V3.09196H20.7965L20.785 11.6764H24.3617L24.3732 7.0136C24.3732 6.75364 24.4251 6.57664 24.4655 6.47708C24.7136 5.76908 25.452 5.68058 25.7 5.68058C25.9712 5.68058 26.6865 5.76908 26.8942 6.48814C26.9461 6.68726 26.9461 6.82554 26.9461 7.02467L26.9172 11.6709H30.4766L30.4881 7.09657C30.4881 6.88639 30.4881 6.70939 30.54 6.51026C30.7593 5.75248 31.515 5.68611 31.7861 5.68611C33.136 5.68611 33.0322 6.84767 33.0322 7.17954L33.0206 11.6654L36.5685 11.693L36.58 11.6986ZM45.3659 11.4109C44.7544 11.7594 44.0506 11.9198 43.341 11.9198C42.4296 11.9198 41.7835 11.6322 41.4719 11.4331C41.3162 11.3224 41.2123 11.1952 41.097 11.0735V11.7096H37.653L37.6645 0.00553136H41.2123L41.2239 3.71699C41.3796 3.56765 41.495 3.46808 41.6911 3.3298C42.2103 2.9924 42.8507 2.87071 43.4852 2.87071C44.5929 2.87071 45.5274 3.24683 46.2658 4.01568C46.7965 4.57433 47.385 5.50911 47.385 7.22932C47.3965 7.71607 47.3561 10.2438 45.3716 11.4054M43.5141 5.79673C43.2026 5.35977 42.7238 5.29892 42.5276 5.29892C42.3834 5.29892 42.0604 5.33764 41.7719 5.54783C41.2008 5.99586 41.1373 6.74257 41.1373 7.38973C41.1373 7.9871 41.2008 8.7836 41.72 9.18185C41.8238 9.27035 42.1123 9.44182 42.5103 9.44182C42.6661 9.44182 43.0814 9.39203 43.4045 9.08229C43.7045 8.7836 43.8833 8.25813 43.8833 7.38973C43.8833 6.8532 43.8314 6.24476 43.5083 5.79673M51.5789 11.7041L51.6077 0H48.0311L48.0195 11.7041H51.5789ZM52.6576 2.2844V0.0165936H56.217V2.2844H52.6576ZM52.6288 11.7152L52.6403 3.13068H56.1997L56.1882 11.7152H52.6288ZM66.8316 11.7262L66.8431 6.30561C66.8431 5.69717 66.7912 5.39848 66.7278 5.11086C66.5835 4.55221 66.3009 3.98802 65.8336 3.61743C64.9914 2.92049 63.8837 2.90943 63.5607 2.90943C62.6492 2.90943 61.6916 3.13621 61.0397 3.76677C60.8724 3.92718 60.832 3.9659 60.6128 4.27564V3.13068H57.2612L57.2496 11.7152H60.7974L60.809 7.14082C60.809 6.78129 60.7974 5.73036 62.1069 5.73036C62.9146 5.73036 63.1742 6.13967 63.2665 6.43836C63.3184 6.63748 63.3184 6.82554 63.3184 7.02467L63.3069 11.7096L66.8431 11.7207L66.8316 11.7262ZM77.2674 11.7373C77.2558 12.1245 77.1751 13.1975 76.229 13.9553C75.2137 14.7795 73.46 14.962 72.2024 14.962C71.7235 14.962 71.2274 14.9509 70.7486 14.9011C69.7621 14.7905 68.6199 14.5527 68.02 13.6677C67.645 13.109 67.6046 12.5227 67.5931 11.8479H70.8294C70.8294 11.9475 70.789 12.3955 71.1005 12.6555C71.2678 12.8048 71.6716 12.9541 72.2197 12.9541C72.312 12.9541 73.0273 12.9431 73.4427 12.6444C73.9215 12.2959 73.8695 11.6211 73.8695 11.4994C73.8695 11.1399 73.8811 10.7914 73.8811 10.4374C73.7253 10.6753 73.7138 10.6974 73.5696 10.797C73.0388 11.2063 72.2197 11.3058 71.5678 11.3058C70.6217 11.3058 69.8025 11.1454 69.0468 10.5702C68.3949 10.0834 67.5527 9.07676 67.5527 7.16848C67.5527 6.75917 67.5931 5.11086 68.6949 3.98802C69.4737 3.19152 70.6679 2.89283 71.7755 2.9039C72.0351 2.9039 73.0388 2.9039 73.7772 3.46255C73.933 3.57318 74.0253 3.66168 74.2445 3.9493L74.233 3.14174H77.3135L77.302 11.2395C77.302 11.4165 77.302 11.5658 77.2731 11.7262M73.0908 5.40955C72.9869 5.35977 72.7677 5.2602 72.4562 5.27127C72.237 5.27127 72.0004 5.32105 71.8216 5.40955C71.314 5.64739 70.9794 6.18392 70.9794 7.26804C70.9794 7.99263 71.1467 8.44066 71.3716 8.67851C71.487 8.81679 71.6312 8.88869 71.7985 8.96613C71.862 9.00485 72.1101 9.06569 72.3697 9.06569C72.5139 9.06569 72.7446 9.06569 73.0446 8.92741C73.7599 8.62873 73.8349 7.78245 73.8349 7.13529C73.8349 6.53792 73.7715 5.74142 73.0965 5.41508M18.1487 24.6859C19.112 24.6859 20.0985 24.5366 20.3985 24.5089V22.1802C20.0466 22.2411 19.9716 22.2411 19.7639 22.2411C18.8294 22.2411 18.7775 21.6935 18.7775 21.345L18.8409 18.0429H20.3985V16.1844H18.8755L18.9044 13.4796H15.3277L15.2758 16.1733H14.0297V18.0318H15.2527L15.1893 22.1913C15.1893 22.49 15.2008 22.7997 15.2931 23.115C15.5642 23.989 16.268 24.6748 18.1544 24.6859M34.7282 20.9081C34.7282 20.9081 34.7282 21.3063 34.809 21.5663C34.9243 21.9037 35.2762 22.5232 36.2281 22.5121C36.7761 22.5121 37.0703 22.3241 37.2434 22.1858C37.6068 21.8982 37.7741 21.5276 37.8549 21.4114L40.7681 22.5951C40.6758 22.7334 40.572 22.9048 40.3413 23.1703C39.7182 23.8673 39.0029 24.2434 38.7029 24.3927C38.276 24.5919 37.3357 24.9403 36.0666 24.9403C35.3282 24.9403 34.6128 24.8408 33.9494 24.5808C32.1034 23.8451 31.1169 22.1249 31.1285 20.2554C31.1285 18.4854 31.988 17.3902 32.4957 16.9145C33.7821 15.7419 35.5474 15.6534 36.055 15.6534C36.6665 15.6534 38.4837 15.7419 39.7874 17.086C40.2143 17.534 40.5432 18.0927 40.7335 18.679C40.9701 19.4257 40.9931 20.1503 40.9931 20.9357L34.7397 20.897L34.7282 20.9081ZM37.278 18.6292C37.0415 17.9212 36.3838 17.8216 36.1069 17.8216C35.8358 17.8327 35.6512 17.9101 35.5474 17.9599C34.884 18.2365 34.809 18.9334 34.7686 19.1215H37.353C37.3415 19.0219 37.3415 18.8449 37.2722 18.6347M47.3965 18.6956C47.5638 18.6956 47.7484 18.7066 47.9157 18.7343V15.858C46.9811 15.858 46.2254 15.8857 45.4351 16.4167C45.239 16.5273 45.1236 16.6269 44.9563 16.7762V16.0295H41.5354L41.5239 24.614H45.0601L45.0717 20.5762C45.0717 20.2775 45.0717 20.0397 45.1755 19.7686C45.6024 18.596 47.1254 18.6845 47.3965 18.6956ZM54.0883 24.6251V23.9668C53.9441 24.0664 53.7768 24.2047 53.4249 24.3651C53.0499 24.5531 52.2308 24.8242 51.1116 24.8242C50.8924 24.8242 50.2809 24.8242 49.6809 24.614C48.5214 24.177 47.8984 23.2201 47.8984 22.0586C47.8984 21.5995 48.0022 20.5651 49.1329 19.8405C49.8713 19.3538 50.8232 19.2432 51.6943 19.1325C52.1904 19.0717 52.7326 18.9943 53.2288 18.9058C53.448 18.856 53.696 18.8062 53.9152 18.7454C53.9152 18.7066 53.9152 18.4854 53.8633 18.3471C53.7595 17.9986 53.4999 17.7497 52.7038 17.7497C52.4442 17.7497 52.2769 17.7884 52.1846 17.7995C51.625 17.9378 51.5731 18.3748 51.5212 18.5573L48.1811 18.6347C48.2214 18.4467 48.2734 18.2863 48.2964 18.1259C48.3887 17.7884 48.5676 17.2021 49.2829 16.6656C49.9982 16.1401 51.077 15.7695 53.0153 15.7806C54.4171 15.7806 56.3151 16.0074 57.0073 17.3902C57.2035 17.7774 57.2669 18.1259 57.2669 18.9113L57.2554 23.5852C57.2554 24.2213 57.3477 24.343 57.5669 24.6472L54.0825 24.6361L54.0883 24.6251ZM52.5538 21.0242C52.1788 21.1127 51.6423 21.2233 51.3597 21.5497C51.3193 21.5995 51.2039 21.7488 51.2039 21.9479C51.2039 22.2079 51.4231 22.6062 52.0865 22.6062C52.3981 22.6062 52.6692 22.5066 52.9576 22.3683C53.9556 21.8594 53.9037 21.0076 53.9037 20.6094C53.448 20.7698 53.0095 20.9081 52.5538 21.0187M64.1087 24.8463C63.8491 24.8463 62.9146 24.8463 62.1704 24.3596C62.055 24.2711 61.9743 24.2102 61.7954 24.0498V27.7391H58.2995L58.3111 16.035H61.7839V16.6933C61.9512 16.4941 62.032 16.4333 62.1358 16.3559C62.4588 16.107 63.1338 15.7972 64.1606 15.7972C66.9527 15.7972 68.0604 17.9931 68.0604 20.3715C68.0604 22.7997 66.8893 24.8574 64.1087 24.8463ZM64.1722 18.7675C63.8607 18.3692 63.3934 18.3084 63.2261 18.3084C63.0819 18.3084 62.8107 18.3194 62.5396 18.4688C61.8127 18.8449 61.7724 19.7133 61.7724 20.3881C61.7724 21.0629 61.8243 21.9313 62.5108 22.2964C62.7819 22.4457 63.0184 22.4457 63.1338 22.4457C63.2896 22.4457 63.5376 22.4347 63.8203 22.2687C64.4548 21.8816 64.5471 21.0574 64.5471 20.4379C64.5471 19.9014 64.5068 19.2155 64.1722 18.7675ZM78 16.0738H74.308C74.2964 16.1733 72.9581 21.6714 72.9581 21.6714L71.6832 16.0738H67.9681L70.789 23.9613C70.9332 24.3485 71.0601 24.708 71.0601 24.8352C71.0601 25.145 70.8121 25.2446 70.3217 25.2446C69.9698 25.2446 69.6468 25.2058 69.3064 25.1948V27.623L70.2929 27.7225C70.5929 27.7613 70.9044 27.7336 71.187 27.7336C72.0697 27.7336 72.7619 27.7447 73.4773 27.2081C74.1522 26.6716 74.4637 25.8972 74.7406 25.1395L78 16.0682V16.0738ZM30.3901 17.8659C30.2458 17.1413 29.8939 16.7043 29.6632 16.4941C29.0286 15.8857 28.0364 15.6368 27.1826 15.6368C25.8846 15.6368 25.077 16.1125 24.7251 16.4333C24.6097 16.5439 24.5174 16.6324 24.3213 16.8703L24.3328 12.8933H20.785L20.7735 24.5974H24.3097L24.3213 18.4799H27.4768L27.4653 24.5974H30.4651L30.4766 18.9998C30.4881 18.5628 30.4766 18.2918 30.3843 17.8659" fill="#7D4199"/>
<path d="M11.0805 27.961L18.7588 27.972L24.3083 24.5703H20.7721L11.0747 27.961H11.0805Z" fill="#DBCFE6"/>
<path d="M27.4827 24.5869H30.4825L34.2899 27.9997L27.1597 27.9886L27.4827 24.5869Z" fill="#DBCFE6"/>
<path d="M24.3216 18.4521L26.3119 19.1445V23.6736L24.3101 24.5697L24.3216 18.4521Z" fill="#818386"/>
</svg>
