<svg width="32" height="32" viewBox="0 0 32 32" fill="none" xmlns="http://www.w3.org/2000/svg">
<path d="M5.02084 27.1617C3.54848 25.7792 2.33564 24.1524 1.47236 22.3021C0.545513 20.3271 0 18.0974 0 15.7794V15.6858C0 7.02692 7.16052 0 15.9841 0C24.8076 0 31.9999 7.02692 31.9999 15.6858C31.9999 15.8106 31.9999 15.9353 31.9681 16.06H28.4832C28.4832 13.3626 27.5881 10.8834 26.0522 8.90839C24.5799 7.02692 22.5673 5.58203 20.2052 4.79722L20.0145 4.61012L20.1098 4.26709L19.7603 4.32945L19.5379 4.04879L19.379 4.36064H18.9976L19.1565 4.67248L18.9341 4.95315L19.2519 5.0467L19.3472 5.38973L19.6332 5.20262L19.951 5.35854V5.01551C22.3184 5.76914 24.3627 7.20883 25.8298 9.09549C27.3021 11.0081 28.1972 13.4249 28.1972 16.06H27.175C27.175 13.1131 25.9622 10.478 23.9761 8.59654C22.0589 6.74626 19.4054 5.58723 16.466 5.49368L16.6567 5.30657L15.9205 5.05709L15.7616 4.30347L15.1208 4.74005L14.4164 4.36584L14.3528 5.11946L13.6166 5.43131L14.1939 5.96664L13.9715 6.72027L14.7394 6.62672L15.2214 7.2556L15.6345 6.59553L16.4025 6.62672L16.1483 5.90427C19.0877 5.90427 21.7729 7.03211 23.6901 8.8824C25.6073 10.7015 26.7884 13.2119 26.7884 16.0652H24.5852C24.5852 14.4332 24.1032 12.926 23.3088 11.6734C22.6362 10.6391 21.7411 9.76076 20.6871 9.10069L21.0685 8.72648L20.4594 8.477L20.3641 7.84811L19.7868 8.15996L19.2413 7.81693L19.1459 8.44581L18.5051 8.66411L18.95 9.16826L18.7275 9.76596L19.4001 9.73478L19.7497 10.2701L20.131 9.73478L20.7719 9.79714L20.7401 9.61004C21.6352 10.2077 22.3713 10.9926 22.9433 11.9021C23.7431 13.0923 24.188 14.506 24.188 16.0756H21.2485C21.2485 14.9478 20.8672 13.9759 20.2264 13.1911C19.6808 12.4998 18.95 11.9697 18.0867 11.6214L18.3091 11.372L17.9278 11.2472L17.8642 10.8106L17.5147 11.0289L17.1651 10.8106L17.1016 11.216L16.6885 11.3408L16.9745 11.6526L16.8474 12.058L17.2605 12.0268L17.4829 12.3699L17.7371 12.0268L18.1502 12.0892L18.1185 11.9645C18.8546 12.2763 19.5273 12.7805 20.0039 13.3782C20.5812 14.1006 20.9308 15.0413 20.9625 16.0756H4.59714C4.62892 17.2347 4.85136 18.3677 5.20621 19.402C5.61931 20.4986 6.16483 21.5017 6.86923 22.4113L7.02812 22.2242L7.15523 22.4425H7.44122L7.34589 22.692L7.50478 22.9102L7.25056 22.9726L7.18701 23.2533L6.96456 23.0974L6.71034 23.1909V22.9414L6.45612 22.8167L6.64679 22.6296L6.61501 22.4113C5.94239 21.5017 5.40217 20.5298 5.01555 19.4644C4.66599 18.3989 4.43825 17.271 4.3747 16.0756H1.6895C1.72128 16.4187 1.72128 16.7669 1.75306 17.1099C1.78483 17.453 1.84839 17.8012 1.91195 18.113L2.00728 17.9883L2.13439 18.2378H2.42038L2.29327 18.4872L2.48394 18.7055L2.19794 18.7679L2.16616 19.0174L1.94372 18.8615L1.6895 18.9862L1.65772 18.7055L1.43528 18.612L1.62595 18.4249L1.56239 18.1754L1.72128 18.2066C1.65772 17.8324 1.59417 17.4841 1.56239 17.1411C1.53061 16.7981 1.49883 16.4498 1.49883 16.0756H0.317774C0.349551 18.2689 0.863285 20.3115 1.72657 22.193C2.62164 24.0433 3.83448 25.7376 5.37039 27.1202H5.40217L5.65639 26.7771L5.87883 27.1513H6.29194L6.13305 27.5256L6.38727 27.8374L5.97416 27.9621L5.91061 28.3675L5.56106 28.1181L5.17973 28.3052L5.14795 27.8998L4.76662 27.7127L5.0844 27.432L5.02084 27.1825V27.1617Z" fill="url(#paint0_radial_17596_58)"/>
<path d="M8.75977 20.0098V19.9786C8.75977 19.6668 8.98221 19.4121 9.30528 19.4121H9.43239C9.75016 19.4121 9.9779 19.6616 9.9779 19.9786V20.0098C9.9779 20.2905 9.75546 20.5451 9.43239 20.5451H9.30528C8.9875 20.5451 8.75977 20.2957 8.75977 20.0098ZM8.75977 25.2488V21.7354C8.75977 21.4235 8.98221 21.1688 9.30528 21.1688H9.43239C9.75016 21.1688 9.9779 21.4183 9.9779 21.7354V25.2488C9.9779 25.5607 9.75546 25.8153 9.43239 25.8153H9.30528C8.9875 25.8153 8.75977 25.5659 8.75977 25.2488ZM12.7531 25.2488V20.514H10.8041V19.9786C10.8041 19.6668 11.0583 19.4121 11.3814 19.4121H15.9838V19.9474C15.9838 20.2593 15.7296 20.514 15.4066 20.514H14.0666V25.2488C14.0666 25.5607 13.8124 25.8153 13.4893 25.8153H13.2986C12.9809 25.8153 12.7531 25.5659 12.7531 25.2488ZM19.3046 24.4016L19.3364 24.4328C19.527 24.464 19.6859 24.5887 19.7813 24.7759C19.8448 24.9941 19.7813 25.1812 19.6541 25.3424C19.5588 25.4359 19.4635 25.4983 19.3681 25.5607C19.0186 25.8101 18.6002 25.9349 18.06 25.9349C17.2602 25.9349 16.6512 25.6542 16.2381 25.1189C15.9521 24.7135 15.7932 24.1781 15.7932 23.5181C15.7932 22.7644 15.9838 22.1667 16.4022 21.7302C16.8207 21.2936 17.3291 21.0701 17.9382 21.0701C18.6426 21.0701 19.2146 21.2884 19.6012 21.7613C19.919 22.1044 20.1149 22.6085 20.1785 23.2374C20.1785 23.4245 20.1467 23.5493 20.0196 23.674C19.9242 23.7987 19.7971 23.8299 19.6383 23.8299H17.0802C17.0802 24.2041 17.1755 24.49 17.3662 24.7083C17.5568 24.8954 17.811 24.9889 18.1023 24.9889C18.293 24.9889 18.4519 24.9578 18.5843 24.833C18.6479 24.8018 18.7114 24.7395 18.7432 24.6459C18.8703 24.4588 19.0927 24.3653 19.3205 24.3964L19.3046 24.4016ZM18.955 23.1179C18.955 22.7437 18.8597 22.489 18.669 22.3019C18.5102 22.1148 18.2877 22.0212 18.0282 22.0212C17.7422 22.0212 17.5145 22.1148 17.3556 22.3019C17.1649 22.489 17.1014 22.7748 17.1014 23.1179H18.955ZM24.6114 22.6813H24.5479C24.3254 22.7437 24.103 22.6189 23.9706 22.4318C23.9388 22.3383 23.8752 22.2759 23.8117 22.2447C23.6528 22.12 23.4621 22.0576 23.2344 22.0576C22.9166 22.0576 22.6889 22.1512 22.4982 22.3694C22.3076 22.5877 22.2122 22.936 22.2122 23.4349C22.2122 23.9702 22.3076 24.3756 22.4982 24.5939C22.6889 24.8122 22.9431 24.937 23.2344 24.937C23.4886 24.937 23.6793 24.8746 23.8435 24.7187C23.907 24.6563 23.9706 24.5628 24.0341 24.438C24.1295 24.2197 24.3837 24.095 24.6432 24.1262L24.7385 24.1574C24.8974 24.1885 25.0563 24.2821 25.1199 24.438C25.2152 24.5939 25.2152 24.781 25.1199 24.9422C24.9928 25.1605 24.8339 25.3476 24.6379 25.5087C24.2884 25.7893 23.8064 25.9453 23.1973 25.9453C22.4929 25.9453 21.9527 25.727 21.5343 25.2852C21.1159 24.8434 20.9252 24.2821 20.9252 23.4973C20.9252 22.7125 21.1159 22.146 21.5343 21.7094C21.9474 21.304 22.4929 21.0805 23.1973 21.0805C23.7746 21.0805 24.2513 21.2052 24.5744 21.4547C24.7332 21.5482 24.8603 21.673 24.9557 21.7977C25.0828 21.9536 25.0828 22.1408 25.0192 22.3331C24.9557 22.5254 24.7968 22.6449 24.6061 22.6761L24.6114 22.6813ZM27.4873 19.9838V21.8029C27.9004 21.33 28.3824 21.0805 28.9596 21.0805C29.2456 21.0805 29.5052 21.1429 29.7276 21.2364C29.95 21.33 30.1407 21.4859 30.2413 21.6418C30.3684 21.7977 30.4638 21.9848 30.4956 22.1771C30.5273 22.3694 30.5591 22.6813 30.5591 23.0867V25.2488C30.5591 25.5607 30.3049 25.8153 29.9818 25.8153H29.8547C29.5687 25.8153 29.3092 25.5659 29.3092 25.2488V23.3673C29.3092 22.8632 29.2774 22.5825 29.2456 22.4578C29.1821 22.3019 29.1185 22.2083 28.9914 22.146C28.8643 22.0524 28.7054 22.0212 28.5465 22.0212C28.3241 22.0212 28.1334 22.0524 27.9693 22.1771C27.8104 22.2707 27.6833 22.4266 27.6197 22.6137C27.5244 22.8008 27.4926 23.1179 27.4926 23.4921V25.2488C27.4926 25.5607 27.2384 25.8153 26.9471 25.8153H26.82C26.5022 25.8153 26.2427 25.5659 26.2427 25.2488V19.9786C26.2427 19.6668 26.4969 19.4121 26.82 19.4121H26.9471C27.2331 19.4121 27.4926 19.6616 27.4926 19.9786L27.4873 19.9838ZM8.8498 31.9015V27.4161C8.8498 27.1355 9.10402 26.8808 9.36354 26.8808H9.39531C9.68131 26.8808 9.90905 27.1303 9.90905 27.4161V31.0543H12.4989V31.3974C12.4989 31.678 12.2447 31.9015 11.9534 31.9015H8.8551H8.8498ZM13.966 29.36L13.7753 29.3288C13.5846 29.2976 13.4258 29.1729 13.3622 28.9546C13.3304 28.7675 13.394 28.5492 13.5846 28.4192C13.8389 28.2633 14.1937 28.1698 14.6704 28.1698C15.1153 28.1698 15.4383 28.2321 15.6608 28.3257C15.8832 28.4192 16.0103 28.544 16.1057 28.6999C16.201 28.8558 16.2328 29.1365 16.2328 29.5783V30.7061C16.2328 31.018 16.2328 31.2726 16.2645 31.3974C16.2963 31.5533 16.3599 31.7404 16.4552 31.9015H15.8461C15.6237 31.9015 15.433 31.7768 15.3642 31.5585L15.3324 31.5273C15.1735 31.6832 14.9829 31.808 14.7869 31.8703C14.5962 31.9639 14.4056 31.9951 14.1778 31.9951C13.7965 31.9951 13.5052 31.9015 13.2828 31.6832C13.0603 31.4961 12.9332 31.2466 12.9332 30.9296C12.9332 30.7113 12.9968 30.5242 13.0921 30.3631C13.1874 30.202 13.3463 30.0824 13.5052 29.9889C13.6959 29.8953 13.9501 29.8329 14.3049 29.7706C14.7498 29.677 15.0729 29.6147 15.2636 29.5211V29.4275C15.2636 29.2404 15.2 29.1157 15.1364 29.0221C15.0411 28.9598 14.8504 28.9286 14.5909 28.9286C14.4003 28.9286 14.2732 28.9598 14.1778 29.0221C14.0825 29.0845 13.9872 29.2093 13.9554 29.3652L13.966 29.36ZM15.2741 30.1448C15.147 30.2072 14.9564 30.2383 14.6651 30.3007C14.4109 30.3631 14.2202 30.4255 14.1196 30.4566C13.9925 30.5502 13.9289 30.6749 13.9289 30.7997C13.9289 30.9556 13.9925 31.0491 14.0878 31.1739C14.1831 31.2674 14.3102 31.2986 14.4691 31.2986C14.6598 31.2986 14.8187 31.2362 14.9829 31.1427C15.11 31.0491 15.2053 30.9556 15.2371 30.8308C15.2371 30.7373 15.2688 30.5814 15.2688 30.3267V30.1396L15.2741 30.1448ZM17.1596 31.9015V26.8496H17.6416C17.9276 26.8496 18.1553 27.0679 18.1553 27.3538V28.6687C18.4731 28.3257 18.8279 28.1646 19.241 28.1646C19.6859 28.1646 20.0725 28.3205 20.3585 28.6375C20.6763 28.9806 20.8034 29.4223 20.8034 30.0512C20.8034 30.6801 20.6445 31.1479 20.3585 31.4961C20.0408 31.8391 19.6859 32.0003 19.241 32.0003C19.0504 32.0003 18.8279 31.9379 18.632 31.8443C18.4095 31.7196 18.2506 31.5949 18.0865 31.3714V31.4026C18.0865 31.6832 17.864 31.9067 17.5727 31.9067H17.1596V31.9015ZM18.15 29.9889C18.15 30.3943 18.2136 30.6801 18.3089 30.836C18.4996 31.1167 18.722 31.2414 19.0133 31.2414C19.2357 31.2414 19.3946 31.1479 19.5588 30.9608C19.723 30.7737 19.7813 30.4878 19.7813 30.0824C19.7813 29.677 19.7177 29.36 19.5588 29.1729C19.3999 28.9858 19.2093 28.9234 18.9815 28.9234C18.7273 28.9234 18.5366 28.9858 18.3724 29.1729C18.2083 29.36 18.15 29.6458 18.15 29.9889ZM21.2483 30.8672L21.8574 30.7737C22.048 30.7425 22.2387 30.836 22.3711 30.992C22.4029 31.0543 22.4347 31.1167 22.4982 31.1479C22.6253 31.2414 22.816 31.3038 23.0437 31.3038C23.298 31.3038 23.4886 31.2414 23.621 31.1479C23.7164 31.0855 23.7481 31.0232 23.7481 30.8984C23.7481 30.836 23.7164 30.7737 23.6846 30.7113C23.621 30.6801 23.5257 30.6178 23.3668 30.5866C22.5671 30.4306 22.0586 30.2747 21.8309 30.1136C21.5449 29.9265 21.386 29.6406 21.386 29.2976C21.386 28.9858 21.5131 28.6999 21.7673 28.4816C22.0216 28.2633 22.44 28.1698 22.9484 28.1698C23.4568 28.1698 23.8435 28.2633 24.0977 28.4192C24.3519 28.5752 24.5108 28.8246 24.6114 29.1417L24.0659 29.2352C23.8752 29.2664 23.6846 29.2041 23.5522 29.0793L23.4568 28.9858C23.3615 28.8922 23.2026 28.861 22.9749 28.861C22.7207 28.861 22.53 28.8922 22.3976 28.9858C22.334 29.0169 22.3023 29.0793 22.3023 29.1729C22.3023 29.2352 22.334 29.2976 22.3976 29.3288C22.4929 29.4223 22.7789 29.4847 23.3244 29.6095C23.8382 29.7342 24.2195 29.8589 24.4102 30.046C24.6326 30.202 24.7279 30.4514 24.7279 30.7685C24.7279 31.1115 24.6008 31.3974 24.3148 31.6468C24.0288 31.8651 23.6104 31.9899 23.0384 31.9899C22.5247 31.9899 22.1434 31.8963 21.8256 31.678C21.5396 31.4909 21.3436 31.2051 21.2483 30.862V30.8672Z" fill="white"/>
<defs>
<radialGradient id="paint0_radial_17596_58" cx="0" cy="0" r="1" gradientUnits="userSpaceOnUse" gradientTransform="translate(16.7273 15.4848) scale(22.6797 19.9931)">
<stop stop-color="#01CFF7"/>
<stop offset="0.39" stop-color="#044F99"/>
<stop offset="0.84" stop-color="#051989"/>
</radialGradient>
</defs>
</svg>
