<svg width="32" height="32" viewBox="0 0 32 32" fill="none" xmlns="http://www.w3.org/2000/svg">
<circle cx="16" cy="16" r="16" fill="#F7931A"/>
<path d="M23.0137 13.9404C23.3347 11.8108 21.7092 10.6696 19.4927 9.90539L20.2111 7.02177L18.4532 6.58363L17.7551 9.39082C17.2914 9.27365 16.8175 9.16666 16.3487 9.05967L17.0519 6.23209L15.299 5.79395L14.5806 8.67756C14.1984 8.59095 13.8213 8.50434 13.4595 8.41264V8.40245L11.0392 7.79617L10.5704 9.67103C10.5704 9.67103 11.8748 9.97162 11.8443 9.98691C12.5576 10.1652 12.685 10.6339 12.6646 11.0059L11.8443 14.292C11.8952 14.3021 11.9564 14.3225 12.0277 14.348C11.9716 14.3327 11.9054 14.3174 11.8443 14.3021L10.6978 18.9027C10.6111 19.1167 10.392 19.4427 9.89266 19.3205C9.90795 19.3459 8.61877 18.9995 8.61877 18.9995L7.74744 21.0068L10.0302 21.5774C10.4532 21.6844 10.871 21.7965 11.2837 21.8984L10.5551 24.8177L12.3079 25.2558L13.0264 22.3722C13.5054 22.5047 13.9691 22.6218 14.4277 22.7339L13.7092 25.6073L15.4672 26.0455L16.1958 23.1364C19.192 23.7019 21.4392 23.4727 22.3869 20.7674C23.1513 18.5868 22.3513 17.3284 20.7716 16.5082C21.9181 16.2432 22.7844 15.4892 23.0137 13.9302V13.9404ZM19.0035 19.565C18.4634 21.7455 14.7895 20.5687 13.6022 20.2732L14.5653 16.4114C15.7576 16.7069 19.5742 17.2978 19.0035 19.5701V19.565ZM19.5487 13.9098C19.0544 15.8917 15.9971 14.8829 15.0086 14.6384L15.885 11.1332C16.8736 11.3778 20.0685 11.8414 19.5538 13.9098H19.5487Z" fill="white"/>
</svg>
