<svg width="32" height="32" viewBox="0 0 32 32" fill="none" xmlns="http://www.w3.org/2000/svg">
<circle cx="16" cy="16" r="16" fill="#345D9D"/>
<path d="M14.7224 23.0726L16.3703 17.5828V17.5773L18.941 16.8597L19.4793 15.044L16.947 15.7993L19.6331 6.79056V6.64593C19.6331 6.58698 19.6167 6.53354 19.5946 6.47967C19.5814 6.44744 19.5643 6.41733 19.5432 6.39018C19.5292 6.37237 19.5134 6.35541 19.4958 6.34056C19.4519 6.30324 19.4024 6.27101 19.3475 6.24938C19.2926 6.22817 19.2376 6.22266 19.1772 6.22266H15.7606C15.6288 6.22266 15.5024 6.2604 15.3981 6.33505C15.2937 6.41012 15.2168 6.51742 15.1838 6.64042L11.9979 17.3152L9.4657 18.0701L8.88892 19.8107L11.4212 19.0558L9.15805 26.6666H22.6543C22.7861 26.6717 22.9124 26.6344 23.0168 26.5593C23.1211 26.4843 23.1981 26.3774 23.231 26.254L24 23.6405V23.4959C24 23.4369 23.9835 23.3831 23.9616 23.3296C23.9396 23.2762 23.9066 23.2279 23.8627 23.1905C23.8421 23.1727 23.8204 23.1566 23.7975 23.1418C23.7713 23.1252 23.7436 23.1108 23.7143 23.0993C23.6594 23.0781 23.6045 23.0726 23.5441 23.0726H14.7224Z" fill="white"/>
</svg>
