<svg width="54" height="32" viewBox="0 0 54 32" fill="none" xmlns="http://www.w3.org/2000/svg">
<path d="M34.2041 3.42188H19.6371V28.5774H34.2041V3.42188Z" fill="#FF5F00"/>
<path d="M20.5788 16C20.5788 10.8889 23.0759 6.35556 26.9142 3.42223C24.0933 1.28889 20.5325 0 16.648 0C7.44535 0 0 7.15556 0 16C0 24.8444 7.44535 32 16.648 32C20.5325 32 24.0933 30.7111 26.9142 28.5778C23.0759 25.6889 20.5788 21.1111 20.5788 16Z" fill="#EB001B"/>
<path d="M53.9999 16C53.9999 24.8444 46.5546 32 37.352 32C33.4674 32 29.9066 30.7111 27.0857 28.5778C30.9702 25.6445 33.4212 21.1111 33.4212 16C33.4212 10.8889 30.924 6.35556 27.0857 3.42223C29.9066 1.28889 33.4674 0 37.352 0C46.5546 0 53.9999 7.2 53.9999 16Z" fill="#F79E1B"/>
</svg>
