<svg width="180" height="32" viewBox="0 0 180 32" fill="none" xmlns="http://www.w3.org/2000/svg">
<path d="M176.716 2.39924C174.434 0.799745 170.957 0 166.387 0H154.47L150.001 24.6953H134.404L135.396 19.0971H144.834L145.927 12.7959H136.489L137.481 7.19771H147.218L148.508 0H128.838L124.567 23.4982H117.315L121.687 0H111.358L107.189 23.3964H100.134L104.4 0H94.1676L89.6991 24.6953H74.0062L74.9981 19.0971H84.4361L85.5292 12.7959H76.0912L77.083 7.19771H86.9158L88.2062 0H26.8212L23.3445 19.5963L16.3913 0H5.75896L0 32H10.2325L13.7092 11.9045L20.4651 32H57.0178L61.4863 7.30468H67.2452L62.6755 32H158.731L161.514 16.4024L165.983 32H176.215L171.544 19.199L172.637 19.0003C174.823 18.5979 176.711 17.4008 178.103 15.6995C179.393 13.7994 180.092 11.5989 179.99 9.19962C179.99 6.1993 178.998 3.99873 176.711 2.39924H176.716ZM48.0757 24.7004H32.4789L33.4708 19.1022H43.3035L44.3966 12.801H34.66L35.5558 7.29959H51.1525L48.0706 24.6953L48.0757 24.7004ZM168.371 14.0032C167.379 14.701 165.886 15.1035 163.801 15.1035H161.813L163.402 6.50493H164.889C166.58 6.50493 167.769 6.80548 168.665 7.30468C169.161 7.60522 169.56 8.10442 169.758 8.60363C170.056 9.10283 170.158 9.70392 170.056 10.305C170.056 11.0029 169.955 11.7058 169.657 12.3069C169.358 13.0048 168.963 13.5091 168.366 14.0083L168.371 14.0032Z" fill="url(#paint0_linear_17596_9)"/>
<defs>
<linearGradient id="paint0_linear_17596_9" x1="0" y1="16" x2="180" y2="16" gradientUnits="userSpaceOnUse">
<stop stop-color="#76BA0E"/>
<stop offset="1" stop-color="#66A10C"/>
</linearGradient>
</defs>
</svg>
