<svg width="96" height="32" viewBox="0 0 96 32" fill="none" xmlns="http://www.w3.org/2000/svg">
<path d="M76.337 3.13906L84.3314 1.75132V31.6671H76.337V3.13906ZM88.0057 3.13906V31.6518H96V1.75132L88.0057 3.13906ZM64.9781 31.6518H72.9724V9.77564H64.9781V31.6518ZM12.1568 12.8686C11.1385 12.802 8.80267 12.6535 8.80267 10.6052C8.80267 8.12674 12.1726 8.12674 13.4271 8.12674C15.6474 8.12674 18.5239 8.77196 20.5711 9.36598C20.5711 9.36598 21.7206 9.76028 22.6864 10.1597L22.7704 10.1751V3.40022L22.6497 3.3695C20.2299 2.54505 17.4164 1.75132 12.1831 1.75132C3.18093 1.75132 0 6.87214 0 11.2504C0 13.7801 1.11805 19.7254 11.4324 20.4167C12.3143 20.4679 14.6344 20.5959 14.6344 22.7313C14.6344 24.4826 12.7395 25.5222 9.53754 25.5222C6.03117 25.5222 2.64552 24.6465 0.577396 23.8221V30.812C3.65859 31.6057 7.14922 32 11.2277 32C20.0357 32 23.9777 27.1608 23.9777 22.3524C23.9777 16.8987 19.5737 13.3653 12.1568 12.8686ZM60.4691 9.46327C53.0837 9.69371 49.3411 12.9301 49.3411 19.3567V31.662H57.4037V21.6201C57.4037 17.7692 57.9128 16.1203 62.6003 15.9718V9.56057C61.7866 9.41207 60.4691 9.46327 60.4691 9.46327ZM38.7958 9.76028C38.6278 10.1904 37.3418 13.7238 34.2396 17.3749V1.75132L25.9933 3.33877V31.6518H34.2396V22.8952C36.6279 26.3978 37.8142 31.6518 37.8142 31.6518H47.6877C46.7061 27.6883 42.4386 20.386 42.4386 20.386C46.2652 15.6441 47.9606 10.5899 48.2283 9.74492H38.7958V9.76028ZM68.9569 7.68123C71.1247 7.68123 72.9042 5.96063 72.9042 3.85086C72.9042 1.74108 71.1405 0 68.9569 0C66.7733 0 65.0306 1.7206 65.0306 3.85086C65.0306 5.98112 66.7943 7.68123 68.9569 7.68123Z" fill="url(#paint0_linear_17596_11)"/>
<defs>
<linearGradient id="paint0_linear_17596_11" x1="1.36633" y1="16.1603" x2="96.5884" y2="16.1603" gradientUnits="userSpaceOnUse">
<stop stop-color="#852167"/>
<stop offset="1" stop-color="#522357"/>
</linearGradient>
</defs>
</svg>
