<svg width="96" height="32" viewBox="0 0 96 32" fill="none" xmlns="http://www.w3.org/2000/svg">
<path d="M62.5288 0C55.7127 0 49.6211 3.63508 49.6211 10.3497C49.6211 18.0509 60.4243 18.5827 60.4243 22.4521C60.4243 24.0813 58.61 25.5395 55.5099 25.5395C51.1116 25.5395 47.8241 23.502 47.8241 23.502L46.4173 30.2788C46.4173 30.2788 50.2044 32 55.2322 32C62.6844 32 68.5492 28.187 68.5492 21.3567C68.5492 13.2186 57.7009 12.7025 57.7009 9.11193C57.7009 7.83564 59.1904 6.43776 62.2808 6.43776C65.7682 6.43776 68.6126 7.91968 68.6126 7.91968L69.9897 1.37514C69.9897 1.37514 66.8935 0 62.5278 0H62.5288ZM0.165285 0.4943L0 1.48191C0 1.48191 2.86751 2.02169 5.45057 3.09926C8.77646 4.33402 9.01285 5.05372 9.57309 7.28598L15.6762 31.4899H23.8578L36.4617 0.4943H28.2993L20.2004 21.5683L16.8956 3.70428C16.5929 1.65986 15.0573 0.493311 13.1786 0.493311H0.166246L0.165285 0.4943ZM39.7444 0.4943L33.3415 31.4899H41.1253L47.5051 0.4943H39.7444ZM83.1568 0.4943C81.28 0.4943 80.2854 1.52838 79.556 3.33455L68.1523 31.4899H76.3147L77.8936 26.797H87.8376L88.7976 31.4899H96L89.7172 0.4943H83.1568ZM84.2186 8.86873L86.6383 20.4996H80.1566L84.2196 8.86873H84.2186Z" fill="url(#paint0_linear_17596_7)"/>
<defs>
<linearGradient id="paint0_linear_17596_7" x1="0" y1="16" x2="96" y2="16" gradientUnits="userSpaceOnUse">
<stop stop-color="#0F2799"/>
<stop offset="1" stop-color="#0D2180"/>
</linearGradient>
</defs>
</svg>
